<?xml version="1.0" encoding="UTF-8" standalone="no"?>
<!DOCTYPE svg PUBLIC "-//W3C//DTD SVG 1.1//EN" "http://www.w3.org/Graphics/SVG/1.1/DTD/svg11.dtd">
<svg width="100%" height="100%" viewBox="0 0 72 72" version="1.1" xmlns="http://www.w3.org/2000/svg" xmlns:xlink="http://www.w3.org/1999/xlink" xml:space="preserve" xmlns:serif="http://www.serif.com/" style="fill-rule:evenodd;clip-rule:evenodd;stroke-linejoin:round;stroke-miterlimit:2;">
    <g id="icon-info">
        <path d="M31.458,59.834C32.521,59.834 33.902,59.393 35.576,58.437C37.09,57.571 39.502,55.597 42.796,52.496C42.995,52.309 43.108,52.049 43.111,51.776C43.113,51.503 43.004,51.242 42.809,51.051L41.438,49.715C41.054,49.342 40.445,49.336 40.055,49.703C38.248,51.4 36.855,52.591 35.869,53.27C35.64,53.428 35.387,53.567 35.201,53.662L35.201,53.631C35.201,51.952 36.444,47.036 38.875,38.869C40.443,33.62 41.196,30.637 41.196,29.936C41.196,29.045 40.865,28.348 40.235,27.828C39.687,27.376 38.91,27.107 37.878,27.107C37.218,27.107 40.412,20.635 40.915,20.635C42.075,20.635 43.133,20.152 44.063,19.13C44.954,18.152 45.396,17.018 45.396,15.732C45.396,14.696 45.056,13.852 44.409,13.188C43.751,12.515 42.918,12.166 41.9,12.166C41.298,12.166 38.2,9.077 36,1C55.317,1 71,16.683 71,36C71,55.317 55.317,71 36,71C29.326,66.542 30.828,59.834 31.458,59.834Z" style="fill:rgb(39,123,178);"/>
        <path d="M36,71C16.683,71 1,55.317 1,36C1,16.683 16.683,1 36,1C40.102,2.731 42.385,12.166 41.9,12.166C40.68,12.166 39.623,12.635 38.738,13.596C37.887,14.521 37.455,15.642 37.455,16.963C37.455,18.047 37.796,18.916 38.434,19.586C39.096,20.282 39.922,20.635 40.915,20.635C41.522,20.635 38.154,27.107 37.878,27.107C36.388,27.107 34.573,27.675 32.453,28.871C30.449,30.002 28.225,31.897 25.796,34.572C25.609,34.778 25.516,35.054 25.54,35.332C25.565,35.61 25.704,35.865 25.925,36.035L27.472,37.231C27.867,37.536 28.426,37.503 28.782,37.155C30.763,35.219 32.031,34.061 32.605,33.701C32.848,33.548 33.072,33.43 33.28,33.362C33.249,33.602 33.189,33.863 33.104,34.143C29.541,45.685 27.787,52.947 27.787,55.916C27.787,57.126 28.14,58.06 28.776,58.742C29.439,59.454 30.326,59.834 31.458,59.834C32.237,59.834 38.365,64.654 36,71Z" style="fill:rgb(39,123,178);"/>
    </g>
</svg>
