<?xml version="1.0" encoding="UTF-8" standalone="no"?>
<!DOCTYPE svg PUBLIC "-//W3C//DTD SVG 1.1//EN" "http://www.w3.org/Graphics/SVG/1.1/DTD/svg11.dtd">
<svg width="100%" height="100%" viewBox="0 0 72 72" version="1.1" xmlns="http://www.w3.org/2000/svg" xmlns:xlink="http://www.w3.org/1999/xlink" xml:space="preserve" xmlns:serif="http://www.serif.com/" style="fill-rule:evenodd;clip-rule:evenodd;stroke-linejoin:round;stroke-miterlimit:2;">
    <g id="icon-map">
        <g transform="matrix(0.998972,0,0,0.998972,0.269821,1.07234)">
            <path d="M26.098,29.754C25.963,29.688 25.821,29.633 25.673,29.592L24.894,29.296L23.039,34.964L21.302,58.871L23.064,61.667L48.153,70.342C48.175,70.35 48.198,70.358 48.221,70.365L49.12,70.676L49.981,70.289C50.01,70.277 50.038,70.264 50.066,70.251L50.602,64.454L48.065,41.246L45.863,37.273L26.098,29.754ZM25.635,57.266L46.094,64.34L43.678,41.791L27.245,35.539L25.635,57.266Z" style="fill:rgb(39,123,178);"/>
        </g>
        <g transform="matrix(0.998972,0,0,0.998972,0.269821,1.07234)">
            <path d="M26.098,29.754C25.963,29.688 25.821,29.633 25.673,29.592L24.894,29.296L5.769,37.859L-0.27,71.001L23.064,61.667L24.897,57.868L26.594,34.964L26.098,29.754ZM22.198,35.981L20.622,57.259L6.27,62.999L10.215,41.346L22.198,35.981Z" style="fill:rgb(39,123,178);"/>
        </g>
        <g transform="matrix(0.998972,0,0,0.998972,0.269821,1.07234)">
            <path d="M45.863,37.273L44.174,41.79L46.771,64.784L48.153,70.342C48.175,70.35 48.198,70.358 48.221,70.365L49.12,70.676L49.981,70.289C50.01,70.277 50.038,70.264 50.066,70.251L71.804,60.489L65.873,27.268L45.863,37.273ZM48.671,41.46L62.127,34.732C62.127,34.732 66.196,57.527 66.196,57.527L51.119,64.298L48.671,41.46Z" style="fill:rgb(39,123,178);"/>
        </g>
        <g transform="matrix(1.125,0,0,1.125,-4.50004,-3.375)">
            <path d="M36,3C45.935,3 54,11.066 54,21C54,30.934 42.475,44.525 36,51C29.59,44.59 18,30.934 18,21C18,11.066 26.066,3 36,3ZM36,15C39.311,15 42,17.689 42,21C42,24.311 39.311,27 36,27C32.689,27 30,24.311 30,21C30,17.689 32.689,15 36,15Z" style="fill:rgb(39,123,178);"/>
        </g>
    </g>
</svg>
