<?xml version="1.0" encoding="UTF-8" standalone="no"?>
<!DOCTYPE svg PUBLIC "-//W3C//DTD SVG 1.1//EN" "http://www.w3.org/Graphics/SVG/1.1/DTD/svg11.dtd">
<svg width="100%" height="100%" viewBox="0 0 72 72" version="1.1" xmlns="http://www.w3.org/2000/svg" xmlns:xlink="http://www.w3.org/1999/xlink" xml:space="preserve" xmlns:serif="http://www.serif.com/" style="fill-rule:evenodd;clip-rule:evenodd;stroke-linejoin:round;stroke-miterlimit:2;">
    <g id="icon-mystic">
        <g transform="matrix(-2.8,0,0,2.8,65.85,3.35)">
            <path d="M19.5,19.4L17,18L18.4,20.5L17,23L19.5,21.6L22,23L20.6,20.5L22,18L19.5,19.4Z" style="fill:rgb(39,123,178);fill-rule:nonzero;"/>
        </g>
        <g transform="matrix(-2,0,0,2,44,-0.5)">
            <path d="M19.5,19.4L17,18L18.4,20.5L17,23L19.5,21.6L22,23L20.6,20.5L22,18L19.5,19.4Z" style="fill:rgb(39,123,178);fill-rule:nonzero;"/>
        </g>
        <g transform="matrix(-2,0,0,2,70.5,26)">
            <path d="M19.5,19.4L17,18L18.4,20.5L17,23L19.5,21.6L22,23L20.6,20.5L22,18L19.5,19.4Z" style="fill:rgb(39,123,178);fill-rule:nonzero;"/>
        </g>
        <g transform="matrix(-2,0,0,2,106,-9.5)">
            <path d="M19.5,19.4L17,18L18.4,20.5L17,23L19.5,21.6L22,23L20.6,20.5L22,18L19.5,19.4Z" style="fill:rgb(39,123,178);fill-rule:nonzero;"/>
        </g>
        <g transform="matrix(-2,0,0,2,79.5,-36)">
            <path d="M19.5,19.4L17,18L18.4,20.5L17,23L19.5,21.6L22,23L20.6,20.5L22,18L19.5,19.4Z" style="fill:rgb(39,123,178);fill-rule:nonzero;"/>
        </g>
        <g transform="matrix(-3.2,0,0,3.2,74.6583,-2.14167)">
            <path d="M22.667,1.333L20.167,2.733L17.667,1.333L19.067,3.833L17.667,6.333L20.167,4.933L22.667,6.333L21.267,3.833L22.667,1.333Z" style="fill:rgb(39,123,178);fill-rule:nonzero;"/>
        </g>
        <g transform="matrix(-2.8,0,0,2.8,70.55,-1.35)">
            <path d="M3.5,5.6L6,7L4.6,4.5L6,2L3.5,3.4L1,2L2.4,4.5L1,7L3.5,5.6Z" style="fill:rgb(39,123,178);fill-rule:nonzero;"/>
        </g>
        <g transform="matrix(3.375,0,0,3.375,2.84625,2.84625)">
            <path d="M9.5,16C11.11,16 12.59,15.41 13.73,14.43L14,14.71L14,15.5L19,20.49L20.49,19L15.5,14L14.71,14L14.43,13.73C15.41,12.59 16,11.11 16,9.5C16,5.91 13.09,3 9.5,3C8.917,3.68 8.829,4.495 9.5,5C11.99,5 14,7.01 14,9.5C14,11.99 11.99,14 9.5,14C8.944,14.738 9.018,15.689 9.5,16Z" style="fill:rgb(39,123,178);fill-rule:nonzero;"/>
        </g>
        <g transform="matrix(3.375,0,0,3.375,2.84625,2.84625)">
            <path d="M9.5,14C7.01,14 5,11.99 5,9.5C5,7.01 7.01,5 9.5,5C10.135,4.476 10.033,3.33 9.5,3C5.91,3 3,5.91 3,9.5C3,13.09 5.91,16 9.5,16C10.127,15.32 10.112,14.33 9.5,14Z" style="fill:rgb(39,123,178);fill-rule:nonzero;"/>
        </g>
    </g>
</svg>
