<?xml version="1.0" encoding="UTF-8" standalone="no"?>
<!DOCTYPE svg PUBLIC "-//W3C//DTD SVG 1.1//EN" "http://www.w3.org/Graphics/SVG/1.1/DTD/svg11.dtd">
<svg width="100%" height="100%" viewBox="0 0 72 72" version="1.1" xmlns="http://www.w3.org/2000/svg" xmlns:xlink="http://www.w3.org/1999/xlink" xml:space="preserve" xmlns:serif="http://www.serif.com/" style="fill-rule:evenodd;clip-rule:evenodd;stroke-linejoin:round;stroke-miterlimit:2;">
    <g id="icon-sources">
        <g transform="matrix(3.6,0,0,3.6,-7.2,-7.2)">
            <path d="M4,6L2,6L2,20C2,21.1 2.9,22 4,22L18,22L18,20L4,20L4,6Z" style="fill:rgb(39,123,178);fill-rule:nonzero;"/>
        </g>
        <g transform="matrix(3.6,0,0,3.6,-7.2,-7.2)">
            <rect x="10" y="12" width="4" height="2" style="fill:rgb(39,123,178);fill-rule:nonzero;"/>
        </g>
        <g transform="matrix(3.6,0,0,3.6,-7.2,-7.2)">
            <rect x="10" y="9" width="8" height="2" style="fill:rgb(39,123,178);fill-rule:nonzero;"/>
        </g>
        <g transform="matrix(3.6,0,0,3.6,-7.2,-7.2)">
            <rect x="10" y="6" width="8" height="2" style="fill:rgb(39,123,178);fill-rule:nonzero;"/>
        </g>
        <g transform="matrix(3.6,0,0,3.6,-7.2,-7.2)">
            <path d="M22,16L8,16L8,2C6.9,2 6,2.9 6,4L6,16C6,17.1 6.9,18 8,18L20,18C21.1,18 22,17.1 22,16Z" style="fill:rgb(39,123,178);fill-rule:nonzero;"/>
        </g>
        <g transform="matrix(3.6,0,0,3.6,-7.2,-7.2)">
            <path d="M20,18C21.1,18 22,17.1 22,16L22,4C22,2.9 21.1,2 20,2L8,2C6.9,2 6,2.9 6,4L20,4L20,18Z" style="fill:rgb(39,123,178);fill-rule:nonzero;"/>
        </g>
    </g>
</svg>
