<?xml version="1.0" encoding="UTF-8" standalone="no"?>
<!DOCTYPE svg PUBLIC "-//W3C//DTD SVG 1.1//EN" "http://www.w3.org/Graphics/SVG/1.1/DTD/svg11.dtd">
<svg width="100%" height="100%" viewBox="0 0 72 72" version="1.1" xmlns="http://www.w3.org/2000/svg" xmlns:xlink="http://www.w3.org/1999/xlink" xml:space="preserve" xmlns:serif="http://www.serif.com/" style="fill-rule:evenodd;clip-rule:evenodd;stroke-linejoin:round;stroke-miterlimit:2;">
    <g id="icon-nun">
        <path d="M3,72C1.955,67.782 2,65.454 2,62C2,55.742 17,50.931 17,40L17,17C17,9.506 24.532,0.12 36,0C36.787,3.617 37.364,7.097 36,14C31.26,14 23,16.528 23,20C23,32.424 31.396,38 36,38C36.472,39.205 36.524,40.814 36,42L32,42L32,50L24,50L24,58L32,58L32,72L3,72Z" style="fill:rgb(39,123,178);"/>
        <g transform="matrix(-0.999992,0,0,1,71.9997,0)">
            <path d="M3,72C1.955,67.782 2,65.454 2,62C2,55.742 17,50.931 17,40L17,17C17,9.506 24.532,0.12 36,0L36,14C31.26,14 23,16.528 23,20C23,32.424 31.396,38 36,38L36,42L32,42L32,50L24,50L24,58L32,58L32,72L3,72Z" style="fill:rgb(39,123,178);"/>
        </g>
    </g>
</svg>
