<?xml version="1.0" encoding="UTF-8" standalone="no"?>
<!DOCTYPE svg PUBLIC "-//W3C//DTD SVG 1.1//EN" "http://www.w3.org/Graphics/SVG/1.1/DTD/svg11.dtd">
<svg width="100%" height="100%" viewBox="0 0 72 72" version="1.1" xmlns="http://www.w3.org/2000/svg" xmlns:xlink="http://www.w3.org/1999/xlink" xml:space="preserve" xmlns:serif="http://www.serif.com/" style="fill-rule:evenodd;clip-rule:evenodd;stroke-linejoin:round;stroke-miterlimit:2;">
    <path d="M35.774,70.999C16.561,70.878 1,55.242 1,36C1,16.683 16.683,1 36,1L36.226,1.001C55.439,1.122 71,16.758 71,36C71,55.317 55.317,71 36,71L35.774,70.999ZM37.808,27.108L37.878,27.107C38.91,27.107 39.687,27.376 40.235,27.828C40.865,28.348 41.196,29.045 41.196,29.936C41.196,30.637 40.443,33.62 38.875,38.869C36.444,47.036 35.201,51.952 35.201,53.631L35.201,53.662C35.387,53.567 35.64,53.428 35.869,53.27C36.855,52.591 38.248,51.4 40.055,49.703C40.445,49.336 41.054,49.342 41.438,49.715L42.809,51.051C43.004,51.242 43.113,51.503 43.111,51.776C43.108,52.049 42.995,52.309 42.796,52.496C39.502,55.597 37.09,57.571 35.576,58.437C33.902,59.393 32.521,59.834 31.458,59.834C30.326,59.834 29.439,59.454 28.776,58.742C28.14,58.06 27.787,57.126 27.787,55.916C27.787,52.947 29.541,45.685 33.104,34.143C33.189,33.863 33.249,33.602 33.28,33.362C33.072,33.43 32.848,33.548 32.605,33.701C32.031,34.061 30.763,35.219 28.782,37.155C28.426,37.503 27.867,37.536 27.472,37.231L25.925,36.035C25.704,35.865 25.565,35.61 25.54,35.332C25.516,35.054 25.609,34.778 25.796,34.572C28.225,31.897 30.449,30.002 32.453,28.871C34.54,27.694 36.332,27.125 37.808,27.108ZM41.843,12.166L41.9,12.166C42.918,12.166 43.751,12.515 44.409,13.188C45.056,13.852 45.396,14.696 45.396,15.732C45.396,17.018 44.954,18.152 44.063,19.13C43.133,20.152 42.075,20.635 40.915,20.635C39.922,20.635 39.096,20.282 38.434,19.586C37.796,18.916 37.455,18.047 37.455,16.963C37.455,15.642 37.887,14.521 38.738,13.596C39.609,12.65 40.647,12.181 41.843,12.166Z" style="fill:rgb(39,123,178);"/>
</svg>
