<?xml version="1.0" encoding="UTF-8" standalone="no"?>
<!DOCTYPE svg PUBLIC "-//W3C//DTD SVG 1.1//EN" "http://www.w3.org/Graphics/SVG/1.1/DTD/svg11.dtd">
<svg width="100%" height="100%" viewBox="0 0 72 72" version="1.1" xmlns="http://www.w3.org/2000/svg" xmlns:xlink="http://www.w3.org/1999/xlink" xml:space="preserve" xmlns:serif="http://www.serif.com/" style="fill-rule:evenodd;clip-rule:evenodd;stroke-linejoin:round;stroke-miterlimit:2;">
    <path d="M56,0L56,57.978L13,58L13,64L18.5,64L18.5,61L27.5,61L27.5,64L59,64L59,8.5L62.5,8.5L62.5,67.5L27.541,67.5L27.457,72L23.009,68L18.52,72L18.5,67.5L13,67.5C11.068,67.5 9.5,65.932 9.5,64L9.5,3.5C9.5,1.568 11.068,0 13,0L56,0ZM41.717,13.004C40.312,13.049 39.264,13.161 38.571,13.338C37.617,13.591 36.747,14 35.961,14.563C35.176,15.126 34.544,15.901 34.067,16.886C33.59,17.872 33.352,18.872 33.352,19.886C33.352,21.026 33.451,22.431 33.648,24.1C33.845,25.768 33.943,27.3 33.943,28.694C33.943,31.158 33.371,33.376 32.226,35.347C31.081,37.319 29.195,39.241 26.568,41.114C28.294,38.946 29.486,37.035 30.145,35.381C30.805,33.727 31.134,31.88 31.134,29.839C31.134,28.882 30.993,27.066 30.712,24.391C30.571,22.97 30.5,21.717 30.5,20.633C30.5,19.169 30.784,17.923 31.351,16.896C31.918,15.868 32.902,14.827 34.302,13.771L33.679,13C32.387,14.014 31.023,14.521 29.59,14.521C28.803,14.521 27.703,14.267 26.291,13.76C24.878,13.253 23.835,13 23.161,13C21.685,13 20.42,13.503 19.366,14.51C18.312,15.517 17.785,16.703 17.785,18.069C17.785,18.506 17.866,19.055 18.028,19.717L18.947,19.389C18.82,19.067 18.757,18.786 18.757,18.547C18.757,17.902 19.006,17.347 19.505,16.884C20.004,16.421 20.619,16.189 21.35,16.189C21.73,16.189 22.243,16.288 22.889,16.485C24.308,16.922 25.482,17.14 26.409,17.14C27.351,17.14 28.497,16.901 29.846,16.422C28.592,17.72 27.709,18.969 27.195,20.168C26.681,21.368 26.424,22.821 26.424,24.528C26.424,25.107 26.466,25.826 26.551,26.687C26.269,26.61 26.001,26.552 25.748,26.513C25.495,26.474 25.262,26.455 25.051,26.455C24.065,26.455 23.136,26.686 22.263,27.149C21.714,27.429 21.179,27.912 20.658,28.599L21.407,29.116C22.152,28.553 22.876,28.271 23.579,28.271C24.563,28.271 25.392,28.602 26.067,29.264C26.741,29.926 27.079,30.707 27.079,31.609C27.079,31.806 27.065,32.066 27.036,32.39C26.684,32.193 26.332,32.049 25.98,31.957C25.628,31.866 25.283,31.82 24.945,31.82C24.368,31.82 23.861,31.911 23.425,32.092C22.988,32.274 22.509,32.595 21.988,33.055L22.633,33.679C23.138,33.439 23.588,33.319 23.981,33.319C24.768,33.319 25.463,33.639 26.067,34.28C26.671,34.92 26.973,35.718 26.973,36.675C26.973,37.673 26.558,38.739 25.727,39.872C24.896,41.004 23.206,42.513 20.658,44.398L21.091,45C23.651,43.733 25.743,42.881 27.368,42.444C28.993,42.008 30.727,41.789 32.569,41.789C34.553,41.789 36.287,42.046 37.771,42.56C39.255,43.074 40.743,43.888 42.234,45L47.715,40.29L47.096,39.555L44.978,41.459C43.403,40.358 41.971,39.585 40.683,39.14C39.396,38.696 37.943,38.473 36.325,38.473C34.553,38.473 32.555,38.836 30.332,39.561C33.725,36.66 35.883,34.432 36.805,32.876C37.728,31.32 38.189,29.507 38.189,27.437C38.189,25.902 38.048,23.924 37.767,21.502C37.612,20.094 37.534,19.016 37.534,18.27C37.534,16.904 37.935,15.873 38.738,15.176C39.541,14.479 40.752,14.01 42.371,13.771L41.854,13L41.717,13.004Z" style="fill:rgb(39,123,178);"/>
</svg>
