<?xml version="1.0" encoding="UTF-8" standalone="no"?>
<!DOCTYPE svg PUBLIC "-//W3C//DTD SVG 1.1//EN" "http://www.w3.org/Graphics/SVG/1.1/DTD/svg11.dtd">
<svg width="100%" height="100%" viewBox="0 0 1600 480" version="1.1" xmlns="http://www.w3.org/2000/svg" xmlns:xlink="http://www.w3.org/1999/xlink" xml:space="preserve" xmlns:serif="http://www.serif.com/" style="fill-rule:evenodd;clip-rule:evenodd;stroke-linejoin:round;stroke-miterlimit:2;">
    <g transform="matrix(1,0,0,1,69.8755,-64.4081)">
        <path d="M108.656,180.102L159.437,338.383L210.062,180.102L282.249,180.102L282.249,407.602L227.249,407.602L227.249,354.477L232.562,245.727L177.562,407.602L141.312,407.602L86.156,245.57L91.468,354.477L91.468,407.602L36.624,407.602L36.624,180.102L108.656,180.102Z" style="fill:rgb(39,123,178);fill-rule:nonzero;"/>
        <path d="M389.124,180.102L439.906,338.383L490.531,180.102L562.718,180.102L562.718,407.602L507.718,407.602L507.718,354.477L513.031,245.727L458.031,407.602L421.781,407.602L366.624,245.57L371.937,354.477L371.937,407.602L317.093,407.602L317.093,180.102L389.124,180.102Z" style="fill:rgb(39,123,178);fill-rule:nonzero;"/>
        <path d="M669.593,180.102L720.374,338.383L770.999,180.102L843.187,180.102L843.187,407.602L788.187,407.602L788.187,354.477L793.499,245.727L738.499,407.602L702.249,407.602L647.093,245.57L652.406,354.477L652.406,407.602L597.562,407.602L597.562,180.102L669.593,180.102Z" style="fill:rgb(39,123,178);fill-rule:nonzero;"/>
        <path d="M950.062,180.102L1000.84,338.383L1051.47,180.102L1123.66,180.102L1123.66,407.602L1068.66,407.602L1068.66,354.477L1073.97,245.727L1018.97,407.602L982.718,407.602L927.562,245.57L932.874,354.477L932.874,407.602L878.031,407.602L878.031,180.102L950.062,180.102Z" style="fill:rgb(39,123,178);fill-rule:nonzero;"/>
    </g>
    <g transform="matrix(1,0,0,1,-160,-292.568)">
        <path d="M1512.69,682.009C1444.08,681.575 1388.5,625.732 1388.5,557.012L1388.5,387.012C1388.5,375.386 1380.86,369.376 1373.5,362.012L1653.5,362.012C1646.41,369.098 1638.5,373.833 1638.5,387.163L1638.5,557.012C1638.5,626.001 1582.49,682.012 1513.5,682.012L1512.69,682.009ZM1513.5,447.012C1554.89,447.012 1588.5,480.618 1588.5,522.012C1588.5,563.406 1554.89,597.012 1513.5,597.012C1472.11,597.012 1438.5,563.406 1438.5,522.012C1438.5,480.618 1472.11,447.012 1513.5,447.012Z" style="fill:rgb(39,123,178);"/>
    </g>
    <g transform="matrix(0.987469,0,0,0.987469,-153.089,-313.769)">
        <path d="M288.179,691.188L278.096,712.256L267.965,691.188L262.883,691.188L262.883,726.222L268.301,726.222L268.301,703.522L276.175,719.599L280.065,719.599L287.843,703.522L287.843,726.222L293.261,726.222L293.261,691.188L288.179,691.188Z" style="fill:rgb(123,123,123);fill-rule:nonzero;"/>
        <path d="M320.813,714.702L320.813,710.867C320.813,707.169 319.854,704.286 318.032,702.416C316.162,700.595 313.666,699.636 310.64,699.636C307.614,699.636 305.118,700.595 303.248,702.416C301.378,704.286 300.419,707.169 300.419,710.867L300.419,715.086C300.419,718.881 301.378,721.812 303.248,723.681C305.118,725.551 307.662,726.51 310.736,726.51C313.714,726.51 316.162,725.743 317.936,724.209C319.71,722.675 320.621,720.563 320.621,718.017L320.621,716.816L315.539,716.816L315.539,717.921C315.539,719.122 315.203,719.986 314.434,720.659C313.618,721.332 312.513,721.668 310.976,721.668C309.199,721.668 307.95,721.236 306.99,720.275C306.077,719.362 305.597,717.68 305.597,715.182L305.597,714.702L320.813,714.702ZM306.942,705.871C307.854,704.958 309.007,704.526 310.64,704.526C312.273,704.526 313.474,704.91 314.338,705.775C315.203,706.64 315.635,708.082 315.635,710.34L305.597,710.34C305.645,708.178 306.077,706.688 306.942,705.871Z" style="fill:rgb(123,123,123);fill-rule:nonzero;"/>
        <path d="M329.84,723.873C331.709,725.599 334.302,726.51 337.424,726.51C340.354,726.51 342.802,725.695 344.576,724.065C346.398,722.435 347.357,720.131 347.357,717.442L347.357,716.29L342.275,716.29L342.275,717.49C342.275,718.883 341.891,719.843 341.074,720.563C340.21,721.332 339.057,721.668 337.472,721.668C335.695,721.668 334.446,721.236 333.486,720.323C332.621,719.459 332.141,717.827 332.141,715.378L332.141,710.768C332.141,708.367 332.621,706.735 333.534,705.87C334.494,704.958 335.743,704.526 337.52,704.526C339.105,704.526 340.21,704.862 341.074,705.63C341.891,706.35 342.275,707.311 342.275,708.703L342.275,709.904L347.357,709.904L347.357,708.703C347.357,706.014 346.446,703.711 344.624,702.081C342.85,700.451 340.354,699.636 337.376,699.636C334.302,699.636 331.709,700.547 329.84,702.273C327.922,704.046 326.963,706.879 326.963,710.576L326.963,715.57C326.963,719.315 327.922,722.099 329.84,723.873Z" style="fill:rgb(123,123,123);fill-rule:nonzero;"/>
        <path d="M359.453,691.188L354.275,691.188L354.275,726.222L359.453,726.222L359.453,709.758C359.453,707.982 359.885,706.734 360.75,705.822C361.614,704.958 362.719,704.526 364.208,704.526C365.745,704.526 366.802,704.91 367.618,705.822C368.483,706.686 368.867,707.934 368.867,709.758L368.867,726.222L374.045,726.222L374.045,709.278C374.045,706.302 373.23,703.903 371.648,702.225C370.066,700.547 367.762,699.684 365.025,699.684C362.815,699.684 360.942,700.307 359.453,701.458L359.453,691.188Z" style="fill:rgb(123,123,123);fill-rule:nonzero;"/>
        <path d="M388.781,719.075L388.781,704.478L394.253,704.478L394.253,699.972L388.781,699.972L388.781,692.34L383.555,694.74L383.555,699.972L379.763,699.972L379.763,704.478L383.555,704.478L383.555,719.219C383.555,721.332 384.178,723.106 385.377,724.304C386.576,725.551 388.35,726.222 390.413,726.222L393.821,726.222L393.821,721.428L390.941,721.428C389.405,721.428 388.781,720.756 388.781,719.075Z" style="fill:rgb(123,123,123);fill-rule:nonzero;"/>
        <path d="M405.629,691.188L400.451,691.188L400.451,726.222L405.629,726.222L405.629,709.758C405.629,707.982 406.061,706.734 406.926,705.822C407.79,704.958 408.895,704.526 410.384,704.526C411.921,704.526 412.978,704.91 413.794,705.822C414.659,706.686 415.043,707.934 415.043,709.758L415.043,726.222L420.221,726.222L420.221,709.278C420.221,706.302 419.406,703.903 417.824,702.225C416.242,700.547 413.938,699.684 411.201,699.684C408.991,699.684 407.118,700.307 405.629,701.458L405.629,691.188Z" style="fill:rgb(123,123,123);fill-rule:nonzero;"/>
        <path d="M433.565,691.668L428.195,691.668L428.195,697.902L433.565,697.902L433.565,691.668ZM433.469,699.966L428.291,699.966L428.291,726.222L433.469,726.222L433.469,699.966Z" style="fill:rgb(123,123,123);fill-rule:nonzero;"/>
        <path d="M443.313,724.304C444.512,725.551 446.333,726.222 448.493,726.222L451.757,726.222L451.757,721.332L448.829,721.332C447.965,721.332 447.533,721.188 447.197,720.804C446.861,720.42 446.717,719.748 446.717,718.692L446.717,691.188L441.539,691.188L441.539,718.884C441.539,721.188 442.162,723.058 443.313,724.304Z" style="fill:rgb(123,123,123);fill-rule:nonzero;"/>
        <path d="M458.864,723.777C460.542,725.551 462.798,726.51 465.439,726.51C467.121,726.51 468.609,726.174 469.858,725.503C470.29,725.263 470.675,725.023 471.059,724.688L471.059,726.222L476.285,726.222L476.285,691.188L471.059,691.188L471.059,701.601C469.57,700.307 467.697,699.636 465.487,699.636C462.846,699.636 460.542,700.595 458.864,702.369C457.138,704.142 456.275,706.927 456.275,710.576L456.275,715.57C456.275,719.219 457.138,722.003 458.864,723.777ZM469.714,720.035C468.85,721.14 467.649,721.668 465.92,721.668C462.942,721.668 461.501,719.699 461.501,715.378L461.501,710.768C461.501,706.495 462.99,704.526 466.112,704.526C467.793,704.526 468.946,705.054 469.762,706.158C470.627,707.359 471.059,708.943 471.059,711.056L471.059,715.33C471.059,717.346 470.627,718.835 469.714,720.035Z" style="fill:rgb(123,123,123);fill-rule:nonzero;"/>
        <rect x="482.915" y="691.188" width="5.082" height="12.954" style="fill:rgb(123,123,123);fill-rule:nonzero;"/>
        <path d="M496.064,724.401C497.79,725.791 500.19,726.51 503.024,726.51C506.002,726.51 508.451,725.791 510.272,724.401C512.142,723.01 513.149,720.9 513.149,718.307C513.149,716.146 512.478,714.369 511.135,713.217C509.841,712.065 507.923,711.248 505.377,710.768L502.207,710.192C500.862,710 499.95,709.616 499.421,709.136C498.941,708.751 498.749,708.223 498.749,707.407C498.749,706.399 499.085,705.726 499.806,705.15C500.574,704.526 501.679,704.238 503.168,704.238C504.705,704.238 505.858,704.526 506.674,705.15C507.443,705.726 507.779,706.399 507.779,707.407L507.779,708.511L512.861,708.511L512.861,707.263C512.861,705.006 511.902,703.087 510.08,701.697C508.354,700.307 505.954,699.636 503.072,699.636C500.382,699.636 498.078,700.355 496.352,701.745C494.578,703.183 493.667,705.15 493.667,707.551C493.667,709.664 494.338,711.392 495.633,712.593C496.831,713.697 498.749,714.465 501.295,714.946L504.321,715.474C505.762,715.714 506.77,716.098 507.347,716.578C507.827,716.962 508.067,717.538 508.067,718.499C508.067,719.603 507.683,720.323 506.914,720.9C506.05,721.524 504.801,721.812 503.168,721.812C501.583,721.812 500.43,721.476 499.566,720.852C498.701,720.227 498.365,719.459 498.365,718.403L498.365,717.298L493.283,717.298L493.283,718.451C493.283,720.9 494.242,722.914 496.064,724.401Z" style="fill:rgb(123,123,123);fill-rule:nonzero;"/>
        <path d="M557.555,691.188L547.472,712.256L537.341,691.188L532.259,691.188L532.259,726.222L537.677,726.222L537.677,703.522L545.551,719.599L549.441,719.599L557.219,703.522L557.219,726.222L562.637,726.222L562.637,691.188L557.555,691.188Z" style="fill:rgb(123,123,123);fill-rule:nonzero;"/>
        <path d="M590.189,714.702L590.189,710.867C590.189,707.169 589.23,704.286 587.408,702.416C585.538,700.595 583.042,699.636 580.016,699.636C576.99,699.636 574.494,700.595 572.624,702.416C570.754,704.286 569.795,707.169 569.795,710.867L569.795,715.086C569.795,718.881 570.754,721.812 572.624,723.681C574.494,725.551 577.038,726.51 580.112,726.51C583.09,726.51 585.538,725.743 587.312,724.209C589.086,722.675 589.997,720.563 589.997,718.017L589.997,716.816L584.915,716.816L584.915,717.921C584.915,719.122 584.579,719.986 583.81,720.659C582.994,721.332 581.889,721.668 580.352,721.668C578.575,721.668 577.326,721.236 576.366,720.275C575.453,719.362 574.973,717.68 574.973,715.182L574.973,714.702L590.189,714.702ZM576.318,705.871C577.23,704.958 578.383,704.526 580.016,704.526C581.649,704.526 582.85,704.91 583.714,705.775C584.579,706.64 585.011,708.082 585.011,710.34L574.973,710.34C575.021,708.178 575.453,706.688 576.318,705.871Z" style="fill:rgb(123,123,123);fill-rule:nonzero;"/>
        <path d="M598.928,723.777C600.606,725.551 602.862,726.51 605.503,726.51C607.185,726.51 608.673,726.174 609.922,725.503C610.354,725.263 610.739,725.023 611.123,724.688L611.123,726.222L616.349,726.222L616.349,691.188L611.123,691.188L611.123,701.601C609.634,700.307 607.761,699.636 605.551,699.636C602.91,699.636 600.606,700.595 598.928,702.369C597.202,704.142 596.339,706.927 596.339,710.576L596.339,715.57C596.339,719.219 597.202,722.003 598.928,723.777ZM609.778,720.035C608.914,721.14 607.713,721.668 605.984,721.668C603.006,721.668 601.565,719.699 601.565,715.378L601.565,710.768C601.565,706.495 603.054,704.526 606.176,704.526C607.857,704.526 609.01,705.054 609.826,706.158C610.691,707.359 611.123,708.943 611.123,711.056L611.123,715.33C611.123,717.346 610.691,718.835 609.778,720.035Z" style="fill:rgb(123,123,123);fill-rule:nonzero;"/>
        <path d="M629.693,691.668L624.323,691.668L624.323,697.902L629.693,697.902L629.693,691.668ZM629.597,699.966L624.419,699.966L624.419,726.222L629.597,726.222L629.597,699.966Z" style="fill:rgb(123,123,123);fill-rule:nonzero;"/>
        <path d="M657.293,714.702L657.293,710.867C657.293,707.169 656.334,704.286 654.512,702.416C652.642,700.595 650.146,699.636 647.12,699.636C644.094,699.636 641.598,700.595 639.728,702.416C637.858,704.286 636.899,707.169 636.899,710.867L636.899,715.086C636.899,718.881 637.858,721.812 639.728,723.681C641.598,725.551 644.142,726.51 647.216,726.51C650.194,726.51 652.642,725.743 654.416,724.209C656.19,722.675 657.101,720.563 657.101,718.017L657.101,716.816L652.019,716.816L652.019,717.921C652.019,719.122 651.683,719.986 650.914,720.659C650.098,721.332 648.993,721.668 647.456,721.668C645.679,721.668 644.43,721.236 643.47,720.275C642.557,719.362 642.077,717.68 642.077,715.182L642.077,714.702L657.293,714.702ZM643.422,705.871C644.334,704.958 645.487,704.526 647.12,704.526C648.753,704.526 649.954,704.91 650.818,705.775C651.683,706.64 652.115,708.082 652.115,710.34L642.077,710.34C642.125,708.178 642.557,706.688 643.422,705.871Z" style="fill:rgb(123,123,123);fill-rule:nonzero;"/>
        <path d="M677.742,699.972L672.128,717.344L666.513,699.972L660.899,699.972L669.969,726.222L674.239,726.222L683.309,699.972L677.742,699.972Z" style="fill:rgb(123,123,123);fill-rule:nonzero;"/>
        <path d="M703.664,701.937C701.986,700.403 699.538,699.636 696.464,699.636C693.63,699.636 691.326,700.355 689.648,701.745C687.97,703.135 687.059,705.103 687.059,707.457L687.059,708.658L692.141,708.658L692.141,707.553C692.141,706.496 692.477,705.775 693.198,705.199C693.966,704.574 695.023,704.286 696.512,704.286C698.049,704.286 699.154,704.622 699.922,705.391C700.691,706.112 701.075,707.121 701.075,708.658L701.075,710.484L695.455,710.484C692.67,710.484 690.366,711.203 688.784,712.545C687.202,713.983 686.339,715.951 686.339,718.401C686.339,720.995 687.154,723.058 688.784,724.449C690.366,725.791 692.622,726.51 695.359,726.51C697.04,726.51 698.529,726.27 699.73,725.743C700.21,725.503 700.691,725.263 701.123,724.976L701.123,726.222L706.253,726.222L706.253,708.706C706.253,705.823 705.39,703.519 703.664,701.937ZM699.874,720.755C699.106,721.572 697.809,721.956 695.888,721.956C692.862,721.956 691.517,720.851 691.517,718.353C691.517,715.903 692.862,714.798 695.936,714.798L701.075,714.798L701.075,717.008C701.075,718.785 700.691,719.986 699.874,720.755Z" style="fill:rgb(123,123,123);fill-rule:nonzero;"/>
        <path d="M715.713,724.304C716.912,725.551 718.733,726.222 720.893,726.222L724.157,726.222L724.157,721.332L721.229,721.332C720.365,721.332 719.933,721.188 719.597,720.804C719.261,720.42 719.117,719.748 719.117,718.692L719.117,691.188L713.939,691.188L713.939,718.884C713.939,721.188 714.562,723.058 715.713,724.304Z" style="fill:rgb(123,123,123);fill-rule:nonzero;"/>
        <path d="M767.795,691.188L757.712,712.256L747.581,691.188L742.499,691.188L742.499,726.222L747.917,726.222L747.917,703.522L755.791,719.599L759.681,719.599L767.459,703.522L767.459,726.222L772.877,726.222L772.877,691.188L767.795,691.188Z" style="fill:rgb(123,123,123);fill-rule:nonzero;"/>
        <path d="M794.478,699.972L788.768,717.252L783.057,699.972L777.491,699.972L786.177,725.028L785.793,726.228C785.457,727.14 785.073,727.764 784.641,728.1C784.209,728.484 783.585,728.628 782.578,728.628L780.418,728.628L780.418,733.518L782.818,733.518C784.641,733.518 786.225,733.086 787.376,732.223C788.528,731.408 789.488,730.018 790.112,728.244L799.901,699.972L794.478,699.972Z" style="fill:rgb(123,123,123);fill-rule:nonzero;"/>
        <path d="M805.712,724.401C807.438,725.791 809.838,726.51 812.672,726.51C815.65,726.51 818.099,725.791 819.92,724.401C821.79,723.01 822.797,720.9 822.797,718.307C822.797,716.146 822.126,714.369 820.783,713.217C819.489,712.065 817.571,711.248 815.025,710.768L811.855,710.192C810.51,710 809.598,709.616 809.069,709.136C808.589,708.751 808.397,708.223 808.397,707.407C808.397,706.399 808.733,705.726 809.454,705.15C810.222,704.526 811.327,704.238 812.816,704.238C814.353,704.238 815.506,704.526 816.322,705.15C817.091,705.726 817.427,706.399 817.427,707.407L817.427,708.511L822.509,708.511L822.509,707.263C822.509,705.006 821.55,703.087 819.728,701.697C818.002,700.307 815.602,699.636 812.72,699.636C810.03,699.636 807.726,700.355 806,701.745C804.226,703.183 803.315,705.15 803.315,707.551C803.315,709.664 803.986,711.392 805.281,712.593C806.479,713.697 808.397,714.465 810.943,714.946L813.969,715.474C815.41,715.714 816.418,716.098 816.995,716.578C817.475,716.962 817.715,717.538 817.715,718.499C817.715,719.603 817.331,720.323 816.562,720.9C815.698,721.524 814.449,721.812 812.816,721.812C811.231,721.812 810.078,721.476 809.214,720.852C808.349,720.227 808.013,719.459 808.013,718.403L808.013,717.298L802.931,717.298L802.931,718.451C802.931,720.9 803.89,722.914 805.712,724.401Z" style="fill:rgb(123,123,123);fill-rule:nonzero;"/>
        <path d="M835.901,719.075L835.901,704.478L841.373,704.478L841.373,699.972L835.901,699.972L835.901,692.34L830.675,694.74L830.675,699.972L826.883,699.972L826.883,704.478L830.675,704.478L830.675,719.219C830.675,721.332 831.298,723.106 832.497,724.304C833.696,725.551 835.47,726.222 837.533,726.222L840.941,726.222L840.941,721.428L838.061,721.428C836.525,721.428 835.901,720.756 835.901,719.075Z" style="fill:rgb(123,123,123);fill-rule:nonzero;"/>
        <path d="M853.229,691.668L847.859,691.668L847.859,697.902L853.229,697.902L853.229,691.668ZM853.133,699.966L847.955,699.966L847.955,726.222L853.133,726.222L853.133,699.966Z" style="fill:rgb(123,123,123);fill-rule:nonzero;"/>
        <path d="M863.312,723.873C865.181,725.599 867.774,726.51 870.896,726.51C873.826,726.51 876.274,725.695 878.048,724.065C879.87,722.435 880.829,720.131 880.829,717.442L880.829,716.29L875.747,716.29L875.747,717.49C875.747,718.883 875.363,719.843 874.546,720.563C873.682,721.332 872.529,721.668 870.944,721.668C869.167,721.668 867.918,721.236 866.958,720.323C866.093,719.459 865.613,717.827 865.613,715.378L865.613,710.768C865.613,708.367 866.093,706.735 867.006,705.87C867.966,704.958 869.215,704.526 870.992,704.526C872.577,704.526 873.682,704.862 874.546,705.63C875.363,706.35 875.747,707.311 875.747,708.703L875.747,709.904L880.829,709.904L880.829,708.703C880.829,706.014 879.918,703.711 878.096,702.081C876.322,700.451 873.826,699.636 870.848,699.636C867.774,699.636 865.181,700.547 863.312,702.273C861.394,704.046 860.435,706.879 860.435,710.576L860.435,715.57C860.435,719.315 861.394,722.099 863.312,723.873Z" style="fill:rgb(123,123,123);fill-rule:nonzero;"/>
        <path d="M903.728,701.937C902.05,700.403 899.602,699.636 896.528,699.636C893.694,699.636 891.39,700.355 889.712,701.745C888.034,703.135 887.123,705.103 887.123,707.457L887.123,708.658L892.205,708.658L892.205,707.553C892.205,706.496 892.541,705.775 893.262,705.199C894.03,704.574 895.087,704.286 896.576,704.286C898.113,704.286 899.218,704.622 899.986,705.391C900.755,706.112 901.139,707.121 901.139,708.658L901.139,710.484L895.519,710.484C892.734,710.484 890.43,711.203 888.848,712.545C887.266,713.983 886.403,715.951 886.403,718.401C886.403,720.995 887.218,723.058 888.848,724.449C890.43,725.791 892.686,726.51 895.423,726.51C897.104,726.51 898.593,726.27 899.794,725.743C900.274,725.503 900.755,725.263 901.187,724.976L901.187,726.222L906.317,726.222L906.317,708.706C906.317,705.823 905.454,703.519 903.728,701.937ZM899.938,720.755C899.17,721.572 897.873,721.956 895.952,721.956C892.926,721.956 891.581,720.851 891.581,718.353C891.581,715.903 892.926,714.798 896,714.798L901.139,714.798L901.139,717.008C901.139,718.785 900.755,719.986 899.938,720.755Z" style="fill:rgb(123,123,123);fill-rule:nonzero;"/>
        <path d="M915.777,724.304C916.976,725.551 918.797,726.222 920.957,726.222L924.221,726.222L924.221,721.332L921.293,721.332C920.429,721.332 919.997,721.188 919.661,720.804C919.325,720.42 919.181,719.748 919.181,718.692L919.181,691.188L914.003,691.188L914.003,718.884C914.003,721.188 914.626,723.058 915.777,724.304Z" style="fill:rgb(123,123,123);fill-rule:nonzero;"/>
        <path d="M967.859,691.188L957.776,712.256L947.645,691.188L942.563,691.188L942.563,726.222L947.981,726.222L947.981,703.522L955.855,719.599L959.745,719.599L967.523,703.522L967.523,726.222L972.941,726.222L972.941,691.188L967.859,691.188Z" style="fill:rgb(123,123,123);fill-rule:nonzero;"/>
        <path d="M996.848,701.937C995.17,700.403 992.722,699.636 989.648,699.636C986.814,699.636 984.51,700.355 982.832,701.745C981.154,703.135 980.243,705.103 980.243,707.457L980.243,708.658L985.325,708.658L985.325,707.553C985.325,706.496 985.661,705.775 986.382,705.199C987.15,704.574 988.207,704.286 989.696,704.286C991.233,704.286 992.338,704.622 993.106,705.391C993.875,706.112 994.259,707.121 994.259,708.658L994.259,710.484L988.639,710.484C985.854,710.484 983.55,711.203 981.968,712.545C980.386,713.983 979.523,715.951 979.523,718.401C979.523,720.995 980.338,723.058 981.968,724.449C983.55,725.791 985.806,726.51 988.543,726.51C990.224,726.51 991.713,726.27 992.914,725.743C993.394,725.503 993.875,725.263 994.307,724.976L994.307,726.222L999.437,726.222L999.437,708.706C999.437,705.823 998.574,703.519 996.848,701.937ZM993.058,720.755C992.29,721.572 990.993,721.956 989.072,721.956C986.046,721.956 984.701,720.851 984.701,718.353C984.701,715.903 986.046,714.798 989.12,714.798L994.259,714.798L994.259,717.008C994.259,718.785 993.875,719.986 993.058,720.755Z" style="fill:rgb(123,123,123);fill-rule:nonzero;"/>
        <path d="M1012.25,699.972L1007.12,699.972L1007.12,726.222L1012.3,726.222L1012.3,709.758C1012.3,707.982 1012.73,706.734 1013.6,705.822C1014.46,704.958 1015.57,704.526 1017.06,704.526C1018.59,704.526 1019.65,704.91 1020.47,705.822C1021.33,706.686 1021.72,707.934 1021.72,709.758L1021.72,726.222L1026.89,726.222L1026.89,709.278C1026.89,706.35 1026.08,703.951 1024.54,702.273C1023.01,700.547 1020.71,699.684 1017.87,699.684C1016.34,699.684 1014.89,699.972 1013.65,700.595C1013.17,700.835 1012.69,701.122 1012.25,701.458L1012.25,699.972Z" style="fill:rgb(123,123,123);fill-rule:nonzero;"/>
        <path d="M1037.07,723.825C1038.7,725.599 1041.25,726.51 1044.42,726.51C1047.68,726.51 1050.18,725.599 1051.86,723.825C1053.49,722.099 1054.35,719.508 1054.35,716.34L1054.35,699.972L1049.17,699.972L1049.17,715.908C1049.17,718.02 1048.84,719.46 1048.07,720.42C1047.39,721.236 1046.24,721.668 1044.46,721.668C1042.69,721.668 1041.53,721.236 1040.86,720.372C1040.14,719.412 1039.76,717.972 1039.76,715.908L1039.76,699.972L1034.58,699.972L1034.58,716.34C1034.58,719.508 1035.44,722.099 1037.07,723.825Z" style="fill:rgb(123,123,123);fill-rule:nonzero;"/>
        <path d="M1063.47,724.401C1065.2,725.791 1067.6,726.51 1070.43,726.51C1073.41,726.51 1075.86,725.791 1077.68,724.401C1079.55,723.01 1080.56,720.9 1080.56,718.307C1080.56,716.146 1079.89,714.369 1078.54,713.217C1077.25,712.065 1075.33,711.248 1072.79,710.768L1069.62,710.192C1068.27,710 1067.36,709.616 1066.83,709.136C1066.35,708.751 1066.16,708.223 1066.16,707.407C1066.16,706.399 1066.49,705.726 1067.21,705.15C1067.98,704.526 1069.09,704.238 1070.58,704.238C1072.11,704.238 1073.27,704.526 1074.08,705.15C1074.85,705.726 1075.19,706.399 1075.19,707.407L1075.19,708.511L1080.27,708.511L1080.27,707.263C1080.27,705.006 1079.31,703.087 1077.49,701.697C1075.76,700.307 1073.36,699.636 1070.48,699.636C1067.79,699.636 1065.49,700.355 1063.76,701.745C1061.99,703.183 1061.08,705.15 1061.08,707.551C1061.08,709.664 1061.75,711.392 1063.04,712.593C1064.24,713.697 1066.16,714.465 1068.7,714.946L1071.73,715.474C1073.17,715.714 1074.18,716.098 1074.76,716.578C1075.24,716.962 1075.47,717.538 1075.47,718.499C1075.47,719.603 1075.09,720.323 1074.32,720.9C1073.46,721.524 1072.21,721.812 1070.58,721.812C1068.99,721.812 1067.84,721.476 1066.97,720.852C1066.11,720.227 1065.77,719.459 1065.77,718.403L1065.77,717.298L1060.69,717.298L1060.69,718.451C1060.69,720.9 1061.65,722.914 1063.47,724.401Z" style="fill:rgb(123,123,123);fill-rule:nonzero;"/>
        <path d="M1088.72,723.873C1090.59,725.599 1093.18,726.51 1096.3,726.51C1099.23,726.51 1101.68,725.695 1103.46,724.065C1105.28,722.435 1106.24,720.131 1106.24,717.442L1106.24,716.29L1101.15,716.29L1101.15,717.49C1101.15,718.883 1100.77,719.843 1099.95,720.563C1099.09,721.332 1097.94,721.668 1096.35,721.668C1094.58,721.668 1093.33,721.236 1092.37,720.323C1091.5,719.459 1091.02,717.827 1091.02,715.378L1091.02,710.768C1091.02,708.367 1091.5,706.735 1092.41,705.87C1093.37,704.958 1094.62,704.526 1096.4,704.526C1097.99,704.526 1099.09,704.862 1099.95,705.63C1100.77,706.35 1101.15,707.311 1101.15,708.703L1101.15,709.904L1106.24,709.904L1106.24,708.703C1106.24,706.014 1105.33,703.711 1103.5,702.081C1101.73,700.451 1099.23,699.636 1096.26,699.636C1093.18,699.636 1090.59,700.547 1088.72,702.273C1086.8,704.046 1085.84,706.879 1085.84,710.576L1085.84,715.57C1085.84,719.315 1086.8,722.099 1088.72,723.873Z" style="fill:rgb(123,123,123);fill-rule:nonzero;"/>
        <path d="M1118.29,699.972L1113.15,699.972L1113.15,726.222L1118.33,726.222L1118.33,709.854C1118.33,708.222 1118.77,706.974 1119.63,705.966C1120.49,705.006 1121.6,704.574 1122.99,704.574C1124.33,704.574 1125.53,704.91 1126.44,705.534L1126.44,699.971C1125.58,699.732 1124.67,699.636 1123.71,699.636C1122.17,699.636 1120.78,699.971 1119.53,700.643C1119.1,700.883 1118.67,701.17 1118.29,701.506L1118.29,699.972Z" style="fill:rgb(123,123,123);fill-rule:nonzero;"/>
        <path d="M1137.39,691.668L1132.02,691.668L1132.02,697.902L1137.39,697.902L1137.39,691.668ZM1137.29,699.966L1132.12,699.966L1132.12,726.222L1137.29,726.222L1137.29,699.966Z" style="fill:rgb(123,123,123);fill-rule:nonzero;"/>
        <path d="M1162.69,702.369C1160.96,700.595 1158.66,699.684 1155.92,699.684C1154.34,699.684 1152.94,700.019 1151.69,700.739C1151.26,700.979 1150.88,701.266 1150.54,701.554L1150.54,699.972L1145.36,699.972L1145.36,733.518L1150.54,733.518L1150.54,724.688C1151.98,725.887 1153.9,726.51 1156.16,726.51C1158.8,726.51 1161.06,725.599 1162.74,723.825C1164.46,722.051 1165.33,719.219 1165.33,715.57L1165.33,710.576C1165.33,706.927 1164.41,704.142 1162.69,702.369ZM1160.15,715.378C1160.15,719.699 1158.71,721.668 1155.68,721.668C1153.95,721.668 1152.8,721.14 1151.89,719.987C1150.97,718.787 1150.54,717.298 1150.54,715.33L1150.54,711.056C1150.54,708.943 1150.97,707.359 1151.84,706.158C1152.65,705.054 1153.81,704.526 1155.49,704.526C1158.66,704.526 1160.15,706.495 1160.15,710.816L1160.15,715.378Z" style="fill:rgb(123,123,123);fill-rule:nonzero;"/>
        <path d="M1179.29,719.075L1179.29,704.478L1184.77,704.478L1184.77,699.972L1179.29,699.972L1179.29,692.34L1174.07,694.74L1174.07,699.972L1170.28,699.972L1170.28,704.478L1174.07,704.478L1174.07,719.219C1174.07,721.332 1174.69,723.106 1175.89,724.304C1177.09,725.551 1178.86,726.222 1180.92,726.222L1184.33,726.222L1184.33,721.428L1181.45,721.428C1179.92,721.428 1179.29,720.756 1179.29,719.075Z" style="fill:rgb(123,123,123);fill-rule:nonzero;"/>
        <path d="M1192.4,724.401C1194.13,725.791 1196.53,726.51 1199.36,726.51C1202.34,726.51 1204.79,725.791 1206.61,724.401C1208.48,723.01 1209.49,720.9 1209.49,718.307C1209.49,716.146 1208.81,714.369 1207.47,713.217C1206.18,712.065 1204.26,711.248 1201.71,710.768L1198.54,710.192C1197.2,710 1196.29,709.616 1195.76,709.136C1195.28,708.751 1195.09,708.223 1195.09,707.407C1195.09,706.399 1195.42,705.726 1196.14,705.15C1196.91,704.526 1198.02,704.238 1199.5,704.238C1201.04,704.238 1202.19,704.526 1203.01,705.15C1203.78,705.726 1204.12,706.399 1204.12,707.407L1204.12,708.511L1209.2,708.511L1209.2,707.263C1209.2,705.006 1208.24,703.087 1206.42,701.697C1204.69,700.307 1202.29,699.636 1199.41,699.636C1196.72,699.636 1194.41,700.355 1192.69,701.745C1190.91,703.183 1190,705.15 1190,707.551C1190,709.664 1190.67,711.392 1191.97,712.593C1193.17,713.697 1195.09,714.465 1197.63,714.946L1200.66,715.474C1202.1,715.714 1203.11,716.098 1203.68,716.578C1204.16,716.962 1204.4,717.538 1204.4,718.499C1204.4,719.603 1204.02,720.323 1203.25,720.9C1202.39,721.524 1201.14,721.812 1199.5,721.812C1197.92,721.812 1196.77,721.476 1195.9,720.852C1195.04,720.227 1194.7,719.459 1194.7,718.403L1194.7,717.298L1189.62,717.298L1189.62,718.451C1189.62,720.9 1190.58,722.914 1192.4,724.401Z" style="fill:rgb(123,123,123);fill-rule:nonzero;"/>
        <path d="M1231.28,723.298C1233.53,725.455 1236.61,726.606 1240.35,726.606C1244.05,726.606 1247.12,725.455 1249.38,723.298C1251.63,721.092 1252.78,717.587 1252.78,712.978L1252.78,704.384C1252.78,699.775 1251.63,696.27 1249.42,694.064C1247.17,691.906 1244.1,690.756 1240.4,690.756C1236.65,690.756 1233.58,691.906 1231.33,694.064C1229.07,696.27 1227.92,699.775 1227.92,704.384L1227.92,712.978C1227.92,717.587 1229.07,721.092 1231.28,723.298ZM1247.36,704.528L1247.36,713.17C1247.36,718.835 1245.11,721.476 1240.4,721.476C1238,721.476 1236.32,720.852 1235.12,719.555C1233.92,718.259 1233.34,716.195 1233.34,713.17L1233.34,704.528C1233.34,701.359 1233.92,699.151 1235.12,697.806C1236.27,696.462 1238,695.838 1240.4,695.838C1245.11,695.838 1247.36,698.623 1247.36,704.528Z" style="fill:rgb(123,123,123);fill-rule:nonzero;"/>
        <path d="M1265.16,699.972L1260.04,699.972L1260.04,726.222L1265.21,726.222L1265.21,709.758C1265.21,707.982 1265.64,706.734 1266.51,705.822C1267.37,704.958 1268.48,704.526 1269.97,704.526C1271.51,704.526 1272.56,704.91 1273.38,705.822C1274.24,706.686 1274.63,707.934 1274.63,709.758L1274.63,726.222L1279.81,726.222L1279.81,709.278C1279.81,706.35 1278.99,703.951 1277.46,702.273C1275.92,700.547 1273.62,699.684 1270.79,699.684C1269.25,699.684 1267.81,699.972 1266.56,700.595C1266.08,700.835 1265.6,701.122 1265.16,701.458L1265.16,699.972Z" style="fill:rgb(123,123,123);fill-rule:nonzero;"/>
        <path d="M1289.27,724.304C1290.46,725.551 1292.29,726.222 1294.44,726.222L1297.71,726.222L1297.71,721.332L1294.78,721.332C1293.92,721.332 1293.49,721.188 1293.15,720.804C1292.81,720.42 1292.67,719.748 1292.67,718.692L1292.67,691.188L1287.49,691.188L1287.49,718.884C1287.49,721.188 1288.11,723.058 1289.27,724.304Z" style="fill:rgb(123,123,123);fill-rule:nonzero;"/>
        <path d="M1308.65,691.668L1303.28,691.668L1303.28,697.902L1308.65,697.902L1308.65,691.668ZM1308.56,699.966L1303.38,699.966L1303.38,726.222L1308.56,726.222L1308.56,699.966Z" style="fill:rgb(123,123,123);fill-rule:nonzero;"/>
        <path d="M1321.76,699.972L1316.63,699.972L1316.63,726.222L1321.81,726.222L1321.81,709.758C1321.81,707.982 1322.24,706.734 1323.1,705.822C1323.97,704.958 1325.07,704.526 1326.56,704.526C1328.1,704.526 1329.15,704.91 1329.97,705.822C1330.84,706.686 1331.22,707.934 1331.22,709.758L1331.22,726.222L1336.4,726.222L1336.4,709.278C1336.4,706.35 1335.58,703.951 1334.05,702.273C1332.51,700.547 1330.21,699.684 1327.38,699.684C1325.84,699.684 1324.4,699.972 1323.15,700.595C1322.67,700.835 1322.19,701.122 1321.76,701.458L1321.76,699.972Z" style="fill:rgb(123,123,123);fill-rule:nonzero;"/>
        <path d="M1363.71,714.702L1363.71,710.867C1363.71,707.169 1362.75,704.286 1360.93,702.416C1359.06,700.595 1356.56,699.636 1353.54,699.636C1350.51,699.636 1348.01,700.595 1346.14,702.416C1344.27,704.286 1343.32,707.169 1343.32,710.867L1343.32,715.086C1343.32,718.881 1344.27,721.812 1346.14,723.681C1348.01,725.551 1350.56,726.51 1353.63,726.51C1356.61,726.51 1359.06,725.743 1360.83,724.209C1362.61,722.675 1363.52,720.563 1363.52,718.017L1363.52,716.816L1358.43,716.816L1358.43,717.921C1358.43,719.122 1358.1,719.986 1357.33,720.659C1356.51,721.332 1355.41,721.668 1353.87,721.668C1352.1,721.668 1350.85,721.236 1349.89,720.275C1348.97,719.362 1348.49,717.68 1348.49,715.182L1348.49,714.702L1363.71,714.702ZM1349.84,705.871C1350.75,704.958 1351.9,704.526 1353.54,704.526C1355.17,704.526 1356.37,704.91 1357.23,705.775C1358.1,706.64 1358.53,708.082 1358.53,710.34L1348.49,710.34C1348.54,708.178 1348.97,706.688 1349.84,705.871Z" style="fill:rgb(123,123,123);fill-rule:nonzero;"/>
    </g>
</svg>
