<?xml version="1.0" encoding="UTF-8" standalone="no"?>
<!DOCTYPE svg PUBLIC "-//W3C//DTD SVG 1.1//EN" "http://www.w3.org/Graphics/SVG/1.1/DTD/svg11.dtd">
<svg width="100%" height="100%" viewBox="0 0 800 240" version="1.1" xmlns="http://www.w3.org/2000/svg" xmlns:xlink="http://www.w3.org/1999/xlink" xml:space="preserve" xmlns:serif="http://www.serif.com/" style="fill-rule:evenodd;clip-rule:evenodd;stroke-linejoin:round;stroke-miterlimit:2;">
    <g transform="matrix(0.5,0,0,0.5,0,0)">
        <path d="M631.434,377.431L625.795,394.494L620.156,377.431L614.659,377.431L623.236,402.173L622.857,403.358C622.525,404.258 622.146,404.875 621.72,405.206C621.293,405.586 620.677,405.728 619.682,405.728L617.55,405.728L617.55,410.557L619.919,410.557C621.72,410.557 623.283,410.13 624.421,409.278C625.558,408.474 626.506,407.101 627.122,405.349L636.788,377.431L631.434,377.431ZM995.029,379.798C993.325,378.046 991.05,377.147 988.346,377.147C986.781,377.147 985.406,377.478 984.173,378.188C983.746,378.425 983.367,378.709 983.035,378.993L983.035,377.431L977.921,377.431L977.921,410.557L983.035,410.557L983.035,401.837C984.457,403.021 986.354,403.636 988.584,403.636C991.192,403.636 993.42,402.737 995.077,400.985C996.781,399.234 997.633,396.437 997.633,392.833L997.633,387.902C997.633,384.299 996.734,381.549 995.029,379.798ZM1062.76,400.464C1064.99,402.595 1068.02,403.731 1071.72,403.731C1075.37,403.731 1078.41,402.595 1080.63,400.464C1082.86,398.286 1083.99,394.825 1083.99,390.274L1083.99,381.788C1083.99,377.236 1082.86,373.776 1080.68,371.597C1078.45,369.467 1075.42,368.33 1071.77,368.33C1068.07,368.33 1065.03,369.467 1062.81,371.597C1060.58,373.776 1059.45,377.236 1059.45,381.788L1059.45,390.274C1059.45,394.825 1060.58,398.286 1062.76,400.464ZM870.988,400.985C872.597,402.737 875.109,403.636 878.239,403.636C881.465,403.636 883.929,402.737 885.586,400.985C887.196,399.281 888.048,396.722 888.048,393.594L888.048,377.431L882.935,377.431L882.935,393.167C882.935,395.253 882.603,396.675 881.844,397.623C881.18,398.428 880.042,398.855 878.287,398.855C876.532,398.855 875.394,398.428 874.73,397.575C874.018,396.627 873.639,395.205 873.639,393.167L873.639,377.431L868.526,377.431L868.526,393.594C868.526,396.722 869.378,399.281 870.988,400.985ZM642.526,401.553C644.231,402.926 646.601,403.636 649.399,403.636C652.34,403.636 654.758,402.926 656.557,401.553C658.403,400.181 659.398,398.096 659.398,395.536C659.398,393.402 658.735,391.648 657.409,390.51C656.131,389.372 654.237,388.566 651.723,388.092L648.593,387.523C647.265,387.333 646.364,386.954 645.842,386.48C645.368,386.101 645.178,385.579 645.178,384.773C645.178,383.777 645.51,383.113 646.221,382.544C646.98,381.928 648.071,381.643 649.542,381.643C651.059,381.643 652.198,381.928 653.004,382.544C653.763,383.113 654.095,383.777 654.095,384.773L654.095,385.863L659.113,385.863L659.113,384.631C659.113,382.402 658.166,380.507 656.367,379.135C654.663,377.762 652.293,377.099 649.447,377.099C646.791,377.099 644.515,377.809 642.811,379.182C641.059,380.602 640.16,382.544 640.16,384.915C640.16,387.001 640.822,388.708 642.101,389.894C643.284,390.984 645.178,391.743 647.692,392.217L650.68,392.739C652.103,392.976 653.099,393.355 653.668,393.829C654.142,394.208 654.379,394.777 654.379,395.726C654.379,396.816 654,397.527 653.241,398.096C652.387,398.713 651.154,398.997 649.542,398.997C647.977,398.997 646.838,398.665 645.985,398.049C645.131,397.433 644.799,396.674 644.799,395.631L644.799,394.54L639.781,394.54L639.781,395.678C639.781,398.096 640.727,400.086 642.526,401.553ZM429.704,391.976L429.704,388.19C429.704,384.537 428.758,381.691 426.959,379.845C425.112,378.046 422.647,377.099 419.659,377.099C416.671,377.099 414.206,378.046 412.359,379.845C410.513,381.691 409.566,384.537 409.566,388.19L409.566,392.356C409.566,396.104 410.513,398.997 412.359,400.843C414.206,402.69 416.718,403.636 419.754,403.636C422.694,403.636 425.112,402.879 426.864,401.364C428.615,399.849 429.515,397.764 429.515,395.25L429.515,394.064L424.497,394.064L424.497,395.155C424.497,396.341 424.165,397.195 423.406,397.859C422.599,398.523 421.509,398.855 419.991,398.855C418.236,398.855 417.003,398.428 416.055,397.479C415.153,396.578 414.679,394.918 414.679,392.451L414.679,391.976L429.704,391.976ZM1024.37,401.553C1026.07,402.926 1028.44,403.636 1031.24,403.636C1034.18,403.636 1036.6,402.926 1038.4,401.553C1040.25,400.181 1041.24,398.096 1041.24,395.536C1041.24,393.402 1040.58,391.648 1039.25,390.51C1037.97,389.372 1036.08,388.566 1033.57,388.092L1030.43,387.523C1029.11,387.333 1028.21,386.954 1027.68,386.48C1027.21,386.101 1027.02,385.579 1027.02,384.773C1027.02,383.777 1027.35,383.113 1028.06,382.544C1028.82,381.928 1029.91,381.643 1031.38,381.643C1032.9,381.643 1034.04,381.928 1034.85,382.544C1035.61,383.113 1035.94,383.777 1035.94,384.773L1035.94,385.863L1040.95,385.863L1040.95,384.631C1040.95,382.402 1040.01,380.507 1038.21,379.135C1036.51,377.762 1034.13,377.099 1031.29,377.099C1028.63,377.099 1026.36,377.809 1024.65,379.182C1022.9,380.602 1022,382.544 1022,384.915C1022,387.001 1022.67,388.708 1023.94,389.894C1025.13,390.984 1027.02,391.743 1029.53,392.217L1032.52,392.739C1033.94,392.976 1034.94,393.355 1035.51,393.829C1035.98,394.208 1036.22,394.777 1036.22,395.726C1036.22,396.816 1035.84,397.527 1035.08,398.096C1034.23,398.713 1033,398.997 1031.38,398.997C1029.82,398.997 1028.68,398.665 1027.83,398.049C1026.97,397.433 1026.64,396.674 1026.64,395.631L1026.64,394.54L1021.62,394.54L1021.62,395.678C1021.62,398.096 1022.57,400.086 1024.37,401.553ZM163.704,391.976L163.704,388.19C163.704,384.537 162.757,381.691 160.958,379.845C159.112,378.046 156.646,377.099 153.659,377.099C150.671,377.099 148.205,378.046 146.359,379.845C144.512,381.691 143.566,384.537 143.566,388.19L143.566,392.356C143.566,396.104 144.512,398.997 146.359,400.843C148.205,402.69 150.718,403.636 153.753,403.636C156.694,403.636 159.112,402.879 160.863,401.364C162.615,399.849 163.514,397.764 163.514,395.25L163.514,394.064L158.496,394.064L158.496,395.155C158.496,396.341 158.164,397.195 157.405,397.859C156.599,398.523 155.508,398.855 153.991,398.855C152.236,398.855 151.003,398.428 150.054,397.479C149.153,396.578 148.679,394.918 148.679,392.451L148.679,391.976L163.704,391.976ZM172.618,401.033C174.464,402.737 177.024,403.636 180.107,403.636C183,403.636 185.418,402.832 187.17,401.222C188.969,399.612 189.915,397.338 189.915,394.682L189.915,393.545L184.897,393.545L184.897,394.73C184.897,396.105 184.518,397.053 183.711,397.764C182.858,398.523 181.72,398.855 180.154,398.855C178.4,398.855 177.167,398.428 176.218,397.527C175.364,396.674 174.89,395.062 174.89,392.644L174.89,388.092C174.89,385.721 175.364,384.109 176.265,383.255C177.214,382.355 178.447,381.928 180.202,381.928C181.767,381.928 182.858,382.26 183.711,383.018C184.518,383.73 184.897,384.678 184.897,386.053L184.897,387.238L189.915,387.238L189.915,386.053C189.915,383.398 189.016,381.123 187.217,379.513C185.465,377.904 183,377.099 180.06,377.099C177.024,377.099 174.464,377.999 172.618,379.703C170.724,381.454 169.777,384.251 169.777,387.902L169.777,392.833C169.777,396.532 170.724,399.281 172.618,401.033ZM541.757,379.371C540.1,377.856 537.683,377.099 534.648,377.099C531.849,377.099 529.574,377.809 527.917,379.182C526.26,380.555 525.361,382.497 525.361,384.822L525.361,386.008L530.379,386.008L530.379,384.917C530.379,383.873 530.711,383.162 531.422,382.592C532.181,381.975 533.225,381.691 534.695,381.691C536.213,381.691 537.304,382.023 538.063,382.782C538.821,383.494 539.201,384.49 539.201,386.008L539.201,387.811L533.652,387.811C530.901,387.811 528.626,388.521 527.064,389.846C525.502,391.266 524.65,393.21 524.65,395.629C524.65,398.191 525.454,400.228 527.064,401.601C528.626,402.926 530.854,403.636 533.557,403.636C535.217,403.636 536.687,403.4 537.873,402.879C538.347,402.642 538.821,402.405 539.248,402.121L539.248,403.352L544.314,403.352L544.314,386.056C544.314,383.209 543.462,380.933 541.757,379.371ZM495.968,391.976L495.968,388.19C495.968,384.537 495.021,381.691 493.222,379.845C491.375,378.046 488.91,377.099 485.922,377.099C482.934,377.099 480.469,378.046 478.622,379.845C476.776,381.691 475.829,384.537 475.829,388.19L475.829,392.356C475.829,396.104 476.776,398.997 478.622,400.843C480.469,402.69 482.982,403.636 486.017,403.636C488.957,403.636 491.375,402.879 493.127,401.364C494.878,399.849 495.778,397.764 495.778,395.25L495.778,394.064L490.76,394.064L490.76,395.155C490.76,396.341 490.428,397.195 489.669,397.859C488.863,398.523 487.772,398.855 486.254,398.855C484.499,398.855 483.266,398.428 482.318,397.479C481.416,396.578 480.942,394.918 480.942,392.451L480.942,391.976L495.968,391.976ZM921.988,401.033C923.834,402.737 926.395,403.636 929.477,403.636C932.37,403.636 934.788,402.832 936.54,401.222C938.339,399.612 939.286,397.338 939.286,394.682L939.286,393.545L934.267,393.545L934.267,394.73C934.267,396.105 933.888,397.053 933.082,397.764C932.228,398.523 931.09,398.855 929.525,398.855C927.77,398.855 926.537,398.428 925.588,397.527C924.735,396.674 924.26,395.062 924.26,392.644L924.26,388.092C924.26,385.721 924.735,384.109 925.636,383.255C926.584,382.355 927.817,381.928 929.572,381.928C931.137,381.928 932.228,382.26 933.082,383.018C933.888,383.73 934.267,384.678 934.267,386.053L934.267,387.238L939.286,387.238L939.286,386.053C939.286,383.398 938.386,381.123 936.587,379.513C934.835,377.904 932.37,377.099 929.43,377.099C926.395,377.099 923.834,377.999 921.988,379.703C920.094,381.454 919.147,384.251 919.147,387.902L919.147,392.833C919.147,396.532 920.094,399.281 921.988,401.033ZM699.405,401.033C701.251,402.737 703.811,403.636 706.894,403.636C709.787,403.636 712.205,402.832 713.956,401.222C715.756,399.612 716.702,397.338 716.702,394.682L716.702,393.545L711.684,393.545L711.684,394.73C711.684,396.105 711.305,397.053 710.498,397.764C709.645,398.523 708.506,398.855 706.941,398.855C705.187,398.855 703.954,398.428 703.005,397.527C702.151,396.674 701.677,395.062 701.677,392.644L701.677,388.092C701.677,385.721 702.151,384.109 703.052,383.255C704.001,382.355 705.234,381.928 706.989,381.928C708.554,381.928 709.645,382.26 710.498,383.018C711.305,383.73 711.684,384.678 711.684,386.053L711.684,387.238L716.702,387.238L716.702,386.053C716.702,383.398 715.803,381.123 714.004,379.513C712.252,377.904 709.787,377.099 706.847,377.099C703.811,377.099 701.251,377.999 699.405,379.703C697.511,381.454 696.564,384.251 696.564,387.902L696.564,392.833C696.564,396.532 697.511,399.281 699.405,401.033ZM831.267,379.371C829.61,377.856 827.193,377.099 824.158,377.099C821.359,377.099 819.084,377.809 817.427,379.182C815.77,380.555 814.871,382.497 814.871,384.822L814.871,386.008L819.889,386.008L819.889,384.917C819.889,383.873 820.221,383.162 820.932,382.592C821.691,381.975 822.735,381.691 824.205,381.691C825.723,381.691 826.814,382.023 827.573,382.782C828.331,383.494 828.711,384.49 828.711,386.008L828.711,387.811L823.162,387.811C820.411,387.811 818.136,388.521 816.574,389.846C815.012,391.266 814.16,393.21 814.16,395.629C814.16,398.191 814.964,400.228 816.574,401.601C818.136,402.926 820.364,403.636 823.067,403.636C824.727,403.636 826.197,403.4 827.383,402.879C827.857,402.642 828.331,402.405 828.758,402.121L828.758,403.352L833.824,403.352L833.824,386.056C833.824,383.209 832.972,380.933 831.267,379.371ZM739.314,379.371C737.657,377.856 735.24,377.099 732.205,377.099C729.406,377.099 727.131,377.809 725.474,379.182C723.817,380.555 722.917,382.497 722.917,384.822L722.917,386.008L727.936,386.008L727.936,384.917C727.936,383.873 728.268,383.162 728.979,382.592C729.738,381.975 730.782,381.691 732.252,381.691C733.77,381.691 734.861,382.023 735.62,382.782C736.378,383.494 736.758,384.49 736.758,386.008L736.758,387.811L731.208,387.811C728.458,387.811 726.183,388.521 724.621,389.846C723.059,391.266 722.207,393.21 722.207,395.629C722.207,398.191 723.011,400.228 724.621,401.601C726.183,402.926 728.41,403.636 731.114,403.636C732.774,403.636 734.244,403.4 735.43,402.879C735.904,402.642 736.378,402.405 736.805,402.121L736.805,403.352L741.871,403.352L741.871,386.056C741.871,383.209 741.019,380.933 739.314,379.371ZM1193.53,391.976L1193.53,388.19C1193.53,384.537 1192.58,381.691 1190.79,379.845C1188.94,378.046 1186.47,377.099 1183.49,377.099C1180.5,377.099 1178.03,378.046 1176.19,379.845C1174.34,381.691 1173.39,384.537 1173.39,388.19L1173.39,392.356C1173.39,396.104 1174.34,398.997 1176.19,400.843C1178.03,402.69 1180.55,403.636 1183.58,403.636C1186.52,403.636 1188.94,402.879 1190.69,401.364C1192.44,399.849 1193.34,397.764 1193.34,395.25L1193.34,394.064L1188.32,394.064L1188.32,395.155C1188.32,396.341 1187.99,397.195 1187.23,397.859C1186.43,398.523 1185.34,398.855 1183.82,398.855C1182.06,398.855 1180.83,398.428 1179.88,397.479C1178.98,396.578 1178.51,394.918 1178.51,392.451L1178.51,391.976L1193.53,391.976ZM336.759,401.553C338.463,402.926 340.833,403.636 343.632,403.636C346.572,403.636 348.99,402.926 350.789,401.553C352.636,400.181 353.63,398.096 353.63,395.536C353.63,393.402 352.967,391.648 351.641,390.51C350.363,389.372 348.469,388.566 345.955,388.092L342.825,387.523C341.497,387.333 340.596,386.954 340.074,386.48C339.6,386.101 339.41,385.579 339.41,384.773C339.41,383.777 339.742,383.113 340.454,382.544C341.213,381.928 342.304,381.643 343.774,381.643C345.292,381.643 346.43,381.928 347.236,382.544C347.995,383.113 348.327,383.777 348.327,384.773L348.327,385.863L353.345,385.863L353.345,384.631C353.345,382.402 352.399,380.507 350.6,379.135C348.895,377.762 346.525,377.099 343.679,377.099C341.023,377.099 338.748,377.809 337.043,379.182C335.291,380.602 334.392,382.544 334.392,384.915C334.392,387.001 335.055,388.708 336.333,389.894C337.517,390.984 339.41,391.743 341.924,392.217L344.912,392.739C346.335,392.976 347.331,393.355 347.9,393.829C348.374,394.208 348.612,394.777 348.612,395.726C348.612,396.816 348.232,397.527 347.473,398.096C346.62,398.713 345.386,398.997 343.774,398.997C342.209,398.997 341.071,398.665 340.217,398.049C339.363,397.433 339.031,396.674 339.031,395.631L339.031,394.54L334.013,394.54L334.013,395.678C334.013,398.096 334.96,400.086 336.759,401.553ZM300.025,400.938C301.682,402.69 303.91,403.636 306.518,403.636C308.178,403.636 309.648,403.305 310.882,402.642C311.308,402.405 311.688,402.169 312.067,401.837L312.067,403.352L317.228,403.352L317.228,368.757L312.067,368.757L312.067,379.04C310.597,377.762 308.747,377.099 306.566,377.099C303.957,377.099 301.682,378.046 300.025,379.798C298.321,381.549 297.469,384.299 297.469,387.902L297.469,392.833C297.469,396.437 298.321,399.186 300.025,400.938ZM897.056,401.553C898.761,402.926 901.131,403.636 903.929,403.636C906.87,403.636 909.288,402.926 911.087,401.553C912.933,400.181 913.928,398.096 913.928,395.536C913.928,393.402 913.265,391.648 911.939,390.51C910.661,389.372 908.767,388.566 906.253,388.092L903.123,387.523C901.795,387.333 900.894,386.954 900.372,386.48C899.898,386.101 899.708,385.579 899.708,384.773C899.708,383.777 900.04,383.113 900.751,382.544C901.51,381.928 902.601,381.643 904.072,381.643C905.589,381.643 906.728,381.928 907.534,382.544C908.293,383.113 908.625,383.777 908.625,384.773L908.625,385.863L913.643,385.863L913.643,384.631C913.643,382.402 912.696,380.507 910.897,379.135C909.193,377.762 906.823,377.099 903.977,377.099C901.321,377.099 899.045,377.809 897.341,379.182C895.589,380.602 894.69,382.544 894.69,384.915C894.69,387.001 895.352,388.708 896.631,389.894C897.814,390.984 899.708,391.743 902.222,392.217L905.21,392.739C906.633,392.976 907.629,393.355 908.198,393.829C908.672,394.208 908.909,394.777 908.909,395.726C908.909,396.816 908.53,397.527 907.771,398.096C906.917,398.713 905.684,398.997 904.072,398.997C902.506,398.997 901.368,398.665 900.514,398.049C899.661,397.433 899.329,396.674 899.329,395.631L899.329,394.54L894.31,394.54L894.31,395.678C894.31,398.096 895.257,400.086 897.056,401.553ZM438.334,400.938C439.991,402.69 442.218,403.636 444.827,403.636C446.487,403.636 447.957,403.305 449.19,402.642C449.617,402.405 449.997,402.169 450.376,401.837L450.376,403.352L455.537,403.352L455.537,368.757L450.376,368.757L450.376,379.04C448.906,377.762 447.056,377.099 444.874,377.099C442.266,377.099 439.991,378.046 438.334,379.798C436.63,381.549 435.777,384.299 435.777,387.902L435.777,392.833C435.777,396.437 436.63,399.186 438.334,400.938ZM131.479,368.757L121.522,389.561L111.519,368.757L106.5,368.757L106.5,403.352L111.85,403.352L111.85,380.936L119.626,396.812L123.466,396.812L131.147,380.936L131.147,403.352L136.497,403.352L136.497,368.757L131.479,368.757ZM516.161,377.431L510.617,394.585L505.072,377.431L499.528,377.431L508.484,403.352L512.702,403.352L521.658,377.431L516.161,377.431ZM247.457,368.757L242.344,368.757L242.344,403.352L247.457,403.352L247.457,387.094C247.457,385.341 247.884,384.108 248.738,383.208C249.592,382.354 250.682,381.928 252.153,381.928C253.67,381.928 254.714,382.307 255.52,383.208C256.374,384.061 256.753,385.293 256.753,387.094L256.753,403.352L261.866,403.352L261.866,386.62C261.866,383.682 261.062,381.312 259.499,379.656C257.937,377.999 255.662,377.147 252.959,377.147C250.777,377.147 248.928,377.762 247.457,378.898L247.457,368.757ZM969.953,377.425L964.839,377.425L964.839,403.352L969.953,403.352L969.953,377.425ZM201.86,368.757L196.747,368.757L196.747,403.352L201.86,403.352L201.86,387.094C201.86,385.341 202.287,384.108 203.14,383.208C203.994,382.354 205.085,381.928 206.555,381.928C208.073,381.928 209.116,382.307 209.923,383.208C210.776,384.061 211.156,385.293 211.156,387.094L211.156,403.352L216.269,403.352L216.269,386.62C216.269,383.682 215.464,381.312 213.902,379.656C212.339,377.999 210.065,377.147 207.362,377.147C205.18,377.147 203.33,377.762 201.86,378.898L201.86,368.757ZM689.353,377.425L684.24,377.425L684.24,403.352L689.353,403.352L689.353,377.425ZM1139.07,377.425L1133.96,377.425L1133.96,403.352L1139.07,403.352L1139.07,377.425ZM274.948,377.425L269.835,377.425L269.835,403.352L274.948,403.352L274.948,377.425ZM468.619,377.425L463.505,377.425L463.505,403.352L468.619,403.352L468.619,377.425ZM951.183,377.431L946.117,377.431L946.117,403.352L951.23,403.352L951.23,387.189C951.23,385.578 951.657,384.345 952.51,383.35C953.363,382.402 954.453,381.975 955.828,381.975C957.155,381.975 958.34,382.307 959.24,382.923L959.24,377.431C958.387,377.194 957.487,377.099 956.539,377.099C955.022,377.099 953.647,377.431 952.415,378.093C951.988,378.33 951.562,378.614 951.183,378.946L951.183,377.431ZM802.641,368.757L792.685,389.561L782.681,368.757L777.663,368.757L777.663,403.352L783.013,403.352L783.013,380.936L790.789,396.812L794.629,396.812L802.31,380.936L802.31,403.352L807.66,403.352L807.66,368.757L802.641,368.757ZM751.212,401.458C752.396,402.689 754.195,403.352 756.327,403.352L759.551,403.352L759.551,398.523L756.659,398.523C755.806,398.523 755.38,398.381 755.048,398.002C754.716,397.623 754.574,396.959 754.574,395.916L754.574,368.757L749.461,368.757L749.461,396.106C749.461,398.381 750.076,400.227 751.212,401.458ZM553.655,401.458C554.839,402.689 556.638,403.352 558.771,403.352L561.994,403.352L561.994,398.523L559.102,398.523C558.249,398.523 557.823,398.381 557.491,398.002C557.159,397.623 557.017,396.959 557.017,395.916L557.017,368.757L551.904,368.757L551.904,396.106C551.904,398.381 552.519,400.227 553.655,401.458ZM284.669,401.458C285.853,402.689 287.652,403.352 289.784,403.352L293.007,403.352L293.007,398.523L290.116,398.523C289.263,398.523 288.836,398.381 288.504,398.002C288.173,397.623 288.03,396.959 288.03,395.916L288.03,368.757L282.917,368.757L282.917,396.106C282.917,398.381 283.533,400.227 284.669,401.458ZM1120.02,401.458C1121.2,402.689 1123,403.352 1125.13,403.352L1128.36,403.352L1128.36,398.523L1125.47,398.523C1124.61,398.523 1124.19,398.381 1123.86,398.002C1123.52,397.623 1123.38,396.959 1123.38,395.916L1123.38,368.757L1118.27,368.757L1118.27,396.106C1118.27,398.381 1118.88,400.227 1120.02,401.458ZM672.337,396.295L672.337,381.88L677.741,381.88L677.741,377.431L672.337,377.431L672.337,369.895L667.177,372.264L667.177,377.431L663.432,377.431L663.432,381.88L667.177,381.88L667.177,396.437C667.177,398.523 667.792,400.275 668.976,401.458C670.16,402.689 671.911,403.352 673.949,403.352L677.314,403.352L677.314,398.618L674.47,398.618C672.954,398.618 672.337,397.954 672.337,396.295ZM230.82,396.295L230.82,381.88L236.224,381.88L236.224,377.431L230.82,377.431L230.82,369.895L225.66,372.264L225.66,377.431L221.915,377.431L221.915,381.88L225.66,381.88L225.66,396.437C225.66,398.523 226.275,400.275 227.459,401.458C228.643,402.689 230.394,403.352 232.432,403.352L235.797,403.352L235.797,398.618L232.953,398.618C231.437,398.618 230.82,397.954 230.82,396.295ZM1011.43,396.295L1011.43,381.88L1016.83,381.88L1016.83,377.431L1011.43,377.431L1011.43,369.895L1006.27,372.264L1006.27,377.431L1002.52,377.431L1002.52,381.88L1006.27,381.88L1006.27,396.437C1006.27,398.523 1006.88,400.275 1008.07,401.458C1009.25,402.689 1011,403.352 1013.04,403.352L1016.4,403.352L1016.4,398.618L1013.56,398.618C1012.04,398.618 1011.43,397.954 1011.43,396.295ZM1096.22,377.431L1091.16,377.431L1091.16,403.352L1096.27,403.352L1096.27,387.094C1096.27,385.341 1096.7,384.108 1097.55,383.208C1098.4,382.354 1099.5,381.928 1100.96,381.928C1102.48,381.928 1103.53,382.307 1104.33,383.208C1105.19,384.061 1105.57,385.293 1105.57,387.094L1105.57,403.352L1110.68,403.352L1110.68,386.62C1110.68,383.729 1109.87,381.36 1108.36,379.703C1106.84,377.999 1104.57,377.147 1101.77,377.147C1100.25,377.147 1098.83,377.431 1097.6,378.046C1097.12,378.283 1096.65,378.567 1096.22,378.898L1096.22,377.431ZM397.479,368.757L387.523,389.561L377.519,368.757L372.5,368.757L372.5,403.352L377.85,403.352L377.85,380.936L385.626,396.812L389.467,396.812L397.148,380.936L397.148,403.352L402.498,403.352L402.498,368.757L397.479,368.757ZM846.479,377.431L841.414,377.431L841.414,403.352L846.527,403.352L846.527,387.094C846.527,385.341 846.954,384.108 847.807,383.208C848.661,382.354 849.752,381.928 851.222,381.928C852.74,381.928 853.783,382.307 854.59,383.208C855.443,384.061 855.823,385.293 855.823,387.094L855.823,403.352L860.936,403.352L860.936,386.62C860.936,383.729 860.131,381.36 858.616,379.703C857.101,377.999 854.827,377.147 852.029,377.147C850.511,377.147 849.088,377.431 847.855,378.046C847.381,378.283 846.906,378.567 846.479,378.898L846.479,377.431ZM605.084,368.757L595.128,389.561L585.125,368.757L580.106,368.757L580.106,403.352L585.456,403.352L585.456,380.936L593.232,396.812L597.072,396.812L604.753,380.936L604.753,403.352L610.103,403.352L610.103,368.757L605.084,368.757ZM1152.11,377.431L1147.04,377.431L1147.04,403.352L1152.15,403.352L1152.15,387.094C1152.15,385.341 1152.58,384.108 1153.43,383.208C1154.29,382.354 1155.38,381.928 1156.85,381.928C1158.37,381.928 1159.41,382.307 1160.21,383.208C1161.07,384.061 1161.45,385.293 1161.45,387.094L1161.45,403.352L1166.56,403.352L1166.56,386.62C1166.56,383.729 1165.76,381.36 1164.24,379.703C1162.73,377.999 1160.45,377.147 1157.65,377.147C1156.14,377.147 1154.71,377.431 1153.48,378.046C1153.01,378.283 1152.53,378.567 1152.11,378.898L1152.11,377.431ZM538.015,397.953C537.256,398.76 535.976,399.139 534.079,399.139C531.091,399.139 529.763,398.048 529.763,395.582C529.763,393.162 531.091,392.071 534.126,392.071L539.201,392.071L539.201,394.253C539.201,396.008 538.821,397.194 538.015,397.953ZM827.525,397.953C826.766,398.76 825.486,399.139 823.589,399.139C820.601,399.139 819.273,398.048 819.273,395.582C819.273,393.162 820.601,392.071 823.636,392.071L828.711,392.071L828.711,394.253C828.711,396.008 828.331,397.194 827.525,397.953ZM735.572,397.953C734.813,398.76 733.533,399.139 731.636,399.139C728.648,399.139 727.32,398.048 727.32,395.582C727.32,393.162 728.648,392.071 731.683,392.071L736.758,392.071L736.758,394.253C736.758,396.008 736.378,397.194 735.572,397.953ZM310.739,397.243C309.886,398.333 308.7,398.855 306.992,398.855C304.052,398.855 302.629,396.911 302.629,392.644L302.629,388.092C302.629,383.872 304.099,381.928 307.182,381.928C308.842,381.928 309.98,382.449 310.787,383.54C311.64,384.725 312.067,386.29 312.067,388.376L312.067,392.596C312.067,394.588 311.64,396.058 310.739,397.243ZM992.52,392.644C992.52,396.911 991.097,398.855 988.109,398.855C986.402,398.855 985.264,398.333 984.363,397.196C983.461,396.01 983.035,394.54 983.035,392.596L983.035,388.376C983.035,386.29 983.461,384.725 984.315,383.54C985.121,382.449 986.26,381.928 987.92,381.928C991.05,381.928 992.52,383.872 992.52,388.139L992.52,392.644ZM449.048,397.243C448.194,398.333 447.009,398.855 445.301,398.855C442.361,398.855 440.938,396.911 440.938,392.644L440.938,388.092C440.938,383.872 442.408,381.928 445.491,381.928C447.151,381.928 448.289,382.449 449.096,383.54C449.949,384.725 450.376,386.29 450.376,388.376L450.376,392.596C450.376,394.588 449.949,396.058 449.048,397.243ZM1078.64,381.93L1078.64,390.464C1078.64,396.058 1076.41,398.665 1071.77,398.665C1069.4,398.665 1067.74,398.049 1066.55,396.769C1065.37,395.489 1064.8,393.45 1064.8,390.464L1064.8,381.93C1064.8,378.801 1065.37,376.62 1066.55,375.293C1067.69,373.965 1069.4,373.349 1071.77,373.349C1076.41,373.349 1078.64,376.099 1078.64,381.93ZM150.007,383.256C150.908,382.355 152.046,381.928 153.659,381.928C155.271,381.928 156.457,382.307 157.31,383.161C158.164,384.016 158.591,385.439 158.591,387.669L148.679,387.669C148.726,385.534 149.153,384.063 150.007,383.256ZM482.27,383.256C483.171,382.355 484.31,381.928 485.922,381.928C487.535,381.928 488.72,382.307 489.574,383.161C490.428,384.016 490.854,385.439 490.854,387.669L480.942,387.669C480.99,385.534 481.416,384.063 482.27,383.256ZM1179.83,383.256C1180.74,382.355 1181.87,381.928 1183.49,381.928C1185.1,381.928 1186.28,382.307 1187.14,383.161C1187.99,384.016 1188.42,385.439 1188.42,387.669L1178.51,387.669C1178.55,385.534 1178.98,384.063 1179.83,383.256ZM416.007,383.256C416.908,382.355 418.046,381.928 419.659,381.928C421.271,381.928 422.457,382.307 423.311,383.161C424.164,384.016 424.591,385.439 424.591,387.669L414.679,387.669C414.727,385.534 415.153,384.063 416.007,383.256ZM328.793,368.757L323.775,368.757L323.775,381.549L328.793,381.549L328.793,368.757ZM468.713,369.231L463.411,369.231L463.411,375.387L468.713,375.387L468.713,369.231ZM275.043,369.231L269.74,369.231L269.74,375.387L275.043,375.387L275.043,369.231ZM1139.16,369.231L1133.86,369.231L1133.86,375.387L1139.16,375.387L1139.16,369.231ZM689.448,369.231L684.146,369.231L684.146,375.387L689.448,375.387L689.448,369.231ZM970.047,369.231L964.745,369.231L964.745,375.387L970.047,375.387L970.047,369.231Z" style="fill:rgb(123,123,123);fill-rule:nonzero;"/>
    </g>
    <g transform="matrix(0.5,0,0,0.5,-80,-146.284)">
        <path d="M1512.69,682.009C1444.08,681.575 1388.5,625.732 1388.5,557.012L1388.5,387.012C1388.5,375.386 1380.86,369.376 1373.5,362.012L1653.5,362.012C1646.41,369.098 1638.5,373.833 1638.5,387.163L1638.5,557.012C1638.5,626.001 1582.49,682.012 1513.5,682.012L1512.69,682.009ZM1513.5,447.012C1554.89,447.012 1588.5,480.618 1588.5,522.012C1588.5,563.406 1554.89,597.012 1513.5,597.012C1472.11,597.012 1438.5,563.406 1438.5,522.012C1438.5,480.618 1472.11,447.012 1513.5,447.012Z" style="fill:rgb(39,123,178);"/>
    </g>
    <g transform="matrix(0.5,0,0,0.5,0,0)">
        <path d="M178.531,115.693L229.313,273.975L279.938,115.693L352.125,115.693L352.125,343.193L297.125,343.193L297.125,290.068L302.438,181.318L247.438,343.193L211.188,343.193L156.031,181.162L161.344,290.068L161.344,343.193L106.5,343.193L106.5,115.693L178.531,115.693ZM459,115.693L509.781,273.975L560.406,115.693L632.594,115.693L632.594,343.193L577.594,343.193L577.594,290.068L582.906,181.318L527.906,343.193L491.656,343.193L436.5,181.162L441.813,290.068L441.813,343.193L386.969,343.193L386.969,115.693L459,115.693ZM739.469,115.693L790.25,273.975L840.875,115.693L913.063,115.693L913.063,343.193L858.063,343.193L858.063,290.068L863.375,181.318L808.375,343.193L772.125,343.193L716.969,181.162L722.281,290.068L722.281,343.193L667.438,343.193L667.438,115.693L739.469,115.693ZM1019.94,115.693L1070.72,273.975L1121.34,115.693L1193.53,115.693L1193.53,343.193L1138.53,343.193L1138.53,290.068L1143.84,181.318L1088.84,343.193L1052.59,343.193L997.438,181.162L1002.75,290.068L1002.75,343.193L947.906,343.193L947.906,115.693L1019.94,115.693Z" style="fill:rgb(39,123,178);fill-rule:nonzero;"/>
    </g>
</svg>
