<?xml version="1.0" encoding="UTF-8" standalone="no"?>
<!DOCTYPE svg PUBLIC "-//W3C//DTD SVG 1.1//EN" "http://www.w3.org/Graphics/SVG/1.1/DTD/svg11.dtd">
<svg width="100%" height="100%" viewBox="0 0 72 72" version="1.1" xmlns="http://www.w3.org/2000/svg" xmlns:xlink="http://www.w3.org/1999/xlink" xml:space="preserve" xmlns:serif="http://www.serif.com/" style="fill-rule:evenodd;clip-rule:evenodd;stroke-linejoin:round;stroke-miterlimit:2;">
    <path d="M19.63,32.804C17.302,28.46 15.75,24.106 15.75,20.25C15.75,9.074 24.824,0 36,0C47.176,0 56.25,9.074 56.25,20.25C56.25,25.097 53.811,30.718 50.456,36.122L66.075,28.313L72,61.499L49.339,71.676L23.31,62.676L0,72L6.032,38.892L19.63,32.804ZM26.953,43.78L25.879,58.279L46.317,65.346L44.13,44.942C41.246,48.516 38.332,51.668 36,54C33.438,51.438 30.14,47.847 26.953,43.78ZM48.891,42.489L62.333,35.768C62.333,35.768 66.398,58.54 66.398,58.54L51.336,65.304L48.891,42.489ZM22.191,37.13C22.264,37.244 22.338,37.357 22.412,37.47L20.871,58.272L6.533,64.007L10.475,42.376L22.191,37.13ZM36,13.5C39.725,13.5 42.75,16.525 42.75,20.25C42.75,23.975 39.725,27 36,27C32.275,27 29.25,23.975 29.25,20.25C29.25,16.525 32.275,13.5 36,13.5Z" style="fill:rgb(39,123,178);"/>
</svg>
