<?xml version="1.0" encoding="UTF-8" standalone="no"?>
<!DOCTYPE svg PUBLIC "-//W3C//DTD SVG 1.1//EN" "http://www.w3.org/Graphics/SVG/1.1/DTD/svg11.dtd">
<svg width="100%" height="100%" viewBox="0 0 72 72" version="1.1" xmlns="http://www.w3.org/2000/svg" xmlns:xlink="http://www.w3.org/1999/xlink" xml:space="preserve" xmlns:serif="http://www.serif.com/" style="fill-rule:evenodd;clip-rule:evenodd;stroke-linejoin:round;stroke-miterlimit:2;">
    <path d="M33,0L39,0L39,7L46,7L46,13L39,13L39,20L57,28L57,39L70,45L70,72L43,72L43,61.955C42.976,58.112 39.848,55 36,55C32.152,55 29.024,58.112 29,61.955L29,72L2,72L2,45L15,39L15,28L33,20L33,13L26,13L26,7L33,7L33,0ZM36,33C33.24,33 31,35.24 31,38C31,40.76 33.24,43 36,43C38.76,43 41,40.76 41,38C41,35.24 38.76,33 36,33Z" style="fill:rgb(39,123,178);fill-rule:nonzero;"/>
</svg>
