<?xml version="1.0" encoding="UTF-8" standalone="no"?>
<!DOCTYPE svg PUBLIC "-//W3C//DTD SVG 1.1//EN" "http://www.w3.org/Graphics/SVG/1.1/DTD/svg11.dtd">
<svg width="100%" height="100%" viewBox="0 0 72 72" version="1.1" xmlns="http://www.w3.org/2000/svg" xmlns:xlink="http://www.w3.org/1999/xlink" xml:space="preserve" xmlns:serif="http://www.serif.com/" style="fill-rule:evenodd;clip-rule:evenodd;stroke-linejoin:round;stroke-miterlimit:2;">
    <path d="M34.767,56.846L34.909,56.846C40.343,56.846 45.338,54.855 49.185,51.547L50.096,52.492L50.096,55.159L66.971,72L72,66.971L55.159,50.096L52.493,50.096L51.548,49.185C54.855,45.337 56.846,40.342 56.846,34.909C56.846,22.84 47.101,13.048 35.051,12.972L34.909,12.971C22.793,12.971 12.971,22.792 12.971,34.909C12.971,46.978 22.716,56.77 34.767,56.846ZM31.5,64.8L36.5,62L33.7,67L36.5,72L31.5,69.2L26.5,72L29.3,67L26.5,62L31.5,64.8ZM11.25,57.67L18.25,53.75L14.33,60.75L18.25,67.75L11.25,63.83L4.25,67.75L8.17,60.75L4.25,53.75L11.25,57.67ZM34.81,19.722C26.452,19.774 19.721,26.538 19.721,34.909C19.721,43.312 26.505,50.096 34.909,50.096C43.313,50.096 50.096,43.312 50.096,34.909C50.096,26.505 43.313,19.721 34.909,19.721L34.81,19.722ZM5,38.3L10,35.5L7.2,40.5L10,45.5L5,42.7L0,45.5L2.8,40.5L0,35.5L5,38.3ZM67,29.3L72,26.5L69.2,31.5L72,36.5L67,33.7L62,36.5L64.8,31.5L62,26.5L67,29.3ZM60.75,14.33L53.75,18.25L57.67,11.25L53.75,4.25L60.75,8.17L67.75,4.25L63.83,11.25L67.75,18.25L60.75,14.33ZM2.125,2.125L10.125,6.605L18.125,2.125L13.645,10.125L18.125,18.125L10.125,13.645L2.125,18.125L6.605,10.125L2.125,2.125ZM40.5,2.8L45.5,0L42.7,5L45.5,10L40.5,7.2L35.5,10L38.3,5L35.5,0L40.5,2.8Z" style="fill:rgb(39,123,178);"/>
</svg>
