<?xml version="1.0" encoding="UTF-8" standalone="no"?>
<!DOCTYPE svg PUBLIC "-//W3C//DTD SVG 1.1//EN" "http://www.w3.org/Graphics/SVG/1.1/DTD/svg11.dtd">
<svg width="100%" height="100%" viewBox="0 0 72 72" version="1.1" xmlns="http://www.w3.org/2000/svg" xmlns:xlink="http://www.w3.org/1999/xlink" xml:space="preserve" xmlns:serif="http://www.serif.com/" style="fill-rule:evenodd;clip-rule:evenodd;stroke-linejoin:round;stroke-miterlimit:2;">
    <path d="M36,0C47.468,0.12 55,9.506 55,17L55,40C55,50.931 70,55.742 70,62C70,65.454 70.044,67.782 69,72L40,72L40,58L48,58L48,50L40,50L40,42L32,42L32,50L24,50L24,58L32,58L32,72L3,72C1.955,67.782 2,65.454 2,62C2,55.742 17,50.931 17,40L17,17C17,9.506 24.532,0.12 36,0ZM36,14C31.26,14 23,16.528 23,20C23,32.424 31.396,38 36,38C40.604,38 49,32.424 49,20C49,16.528 40.74,14 36,14Z" style="fill:rgb(39,123,178);"/>
</svg>
