<?xml version="1.0" encoding="UTF-8" standalone="no"?>
<!DOCTYPE svg PUBLIC "-//W3C//DTD SVG 1.1//EN" "http://www.w3.org/Graphics/SVG/1.1/DTD/svg11.dtd">
<svg width="100%" height="100%" viewBox="0 0 72 72" version="1.1" xmlns="http://www.w3.org/2000/svg" xmlns:xlink="http://www.w3.org/1999/xlink" xml:space="preserve" xmlns:serif="http://www.serif.com/" style="fill-rule:evenodd;clip-rule:evenodd;stroke-linejoin:round;stroke-miterlimit:2;">
    <path d="M7.2,14.4L0,14.4L0,64.8C0,68.76 3.24,72 7.2,72L57.6,72L57.6,64.8L7.2,64.8L7.2,14.4ZM21.6,57.6L64.8,57.6L64.846,57.6C65.628,57.592 66.405,57.462 67.145,57.206C68.173,56.849 69.115,56.255 69.885,55.485C70.655,54.715 71.249,53.773 71.606,52.745C71.867,51.991 71.997,51.197 72,50.4L72,7.2C72,3.24 68.76,0 64.8,0L21.6,0C17.655,0 14.425,3.215 14.4,7.154L14.4,7.2L14.4,50.4C14.4,54.36 17.64,57.6 21.6,57.6ZM21.6,50.4L64.8,50.4L64.8,7.2L21.6,7.2L21.6,50.4ZM28.8,36L43.2,36L43.2,43.2L28.8,43.2L28.8,36ZM28.8,25.2L57.6,25.2L57.6,32.4L28.8,32.4L28.8,25.2ZM28.8,14.4L57.6,14.4L57.6,21.6L28.8,21.6L28.8,14.4Z" style="fill:rgb(39,123,178);"/>
</svg>
