<?xml version="1.0" encoding="UTF-8" standalone="no"?>
<!DOCTYPE svg PUBLIC "-//W3C//DTD SVG 1.1//EN" "http://www.w3.org/Graphics/SVG/1.1/DTD/svg11.dtd">
<svg width="100%" height="100%" viewBox="0 0 64 64" version="1.1" xmlns="http://www.w3.org/2000/svg" xmlns:xlink="http://www.w3.org/1999/xlink" xml:space="preserve" xmlns:serif="http://www.serif.com/" style="fill-rule:evenodd;clip-rule:evenodd;stroke-linejoin:round;stroke-miterlimit:2;">
    <g transform="matrix(2,0,0,2,0,0)">
        <path d="M15.96,32C9.079,31.978 3.5,26.385 3.5,19.5L3.5,2.5C3.5,1.337 2.736,0.736 2,0L30,0C29.291,0.709 28.5,1.182 28.5,2.515L28.5,19.5C28.5,26.399 22.899,32 16,32L15.96,32ZM4.133,1L27.829,1C27.625,1.406 27.5,1.889 27.5,2.515L27.5,19.5C27.5,25.847 22.347,31 16,31C9.653,31 4.5,25.847 4.5,19.5L4.5,2.5C4.5,1.912 4.36,1.428 4.133,1ZM14.106,10.17L12,6.959L15,7.959L16,3.959L17,7.877L20,6.959L17.894,10.17C18.758,9.855 19.765,9.926 20.565,10.383L23.071,7.877L24.132,8.938L21.62,11.45C21.859,11.884 22,12.414 22,13.041C22,16.226 18.945,17.878 17.137,20.041L23.5,20.041L23.5,26.041L8.5,26.041L8.5,20.041L14.958,20.041C13.194,17.857 10,16.236 10,13.041C10,12.414 10.141,11.884 10.38,11.45L7.868,8.938L8.929,7.877L11.435,10.383C12.235,9.926 13.242,9.855 14.106,10.17Z"/>
    </g>
</svg>
