<?xml version="1.0" encoding="UTF-8" standalone="no"?>
<!DOCTYPE svg PUBLIC "-//W3C//DTD SVG 1.1//EN" "http://www.w3.org/Graphics/SVG/1.1/DTD/svg11.dtd">
<svg width="100%" height="100%" viewBox="0 0 64 64" version="1.1" xmlns="http://www.w3.org/2000/svg" xmlns:xlink="http://www.w3.org/1999/xlink" xml:space="preserve" xmlns:serif="http://www.serif.com/" style="fill-rule:evenodd;clip-rule:evenodd;stroke-linejoin:round;stroke-miterlimit:2;">
    <g transform="matrix(2,0,0,2,0,0)">
        <path d="M4.5,18.75L4.499,4.75L3.5,4L2,0L30,0L28.5,4L27.5,4.75L27.513,18.75C27.513,18.75 27.524,18.754 28.5,19.5C28.5,23.323 26.78,26.748 24.072,29.042C24.77,24.719 19.5,24.797 19.5,27C19.5,24.765 17.5,24 17.5,24L17.5,20.633L21.497,20.633L22.444,19.328L23.415,20.633L25.583,20.633L23.512,18.108L25.462,15.75L23.423,15.75L22.492,16.978L21.537,15.75L19.409,15.75L21.368,18.17L19.337,20.633L17.5,16.981L17.5,13.486L22.5,13.5L22.481,10L17.5,10L17.5,7.995L21,8L21,5L17.5,5L17.5,2L14.5,2L14.5,5L10.994,5L11,7.995L14.5,7.995L14.457,10L9.5,10L9.5,13.524L14.5,13.5L14.5,16.78L12.562,20.633L14.488,20.633L14.5,20.606L14.5,24C14.5,24 12.5,24.436 12.5,27C12.5,24.425 6.726,24.908 7.928,29.042C5.22,26.748 3.5,23.323 3.5,19.5C4.485,18.769 4.5,18.75 4.5,18.75ZM12.561,17.557C12.555,17.199 12.451,16.885 12.249,16.615C12.04,16.336 11.743,16.122 11.358,15.973C10.972,15.824 10.52,15.75 10.001,15.75L7.296,15.75L7.296,20.633L9.19,20.633L9.19,19.433L10.001,19.433C10.52,19.433 10.972,19.358 11.358,19.21C11.743,19.061 12.04,18.847 12.249,18.568C12.457,18.289 12.562,17.963 12.562,17.591L12.561,17.557Z" style="fill:rgb(39,39,39);"/>
    </g>
</svg>
