<?xml version="1.0" encoding="UTF-8" standalone="no"?>
<!DOCTYPE svg PUBLIC "-//W3C//DTD SVG 1.1//EN" "http://www.w3.org/Graphics/SVG/1.1/DTD/svg11.dtd">
<svg width="100%" height="100%" viewBox="0 0 64 64" version="1.1" xmlns="http://www.w3.org/2000/svg" xmlns:xlink="http://www.w3.org/1999/xlink" xml:space="preserve" xmlns:serif="http://www.serif.com/" style="fill-rule:evenodd;clip-rule:evenodd;stroke-linejoin:round;stroke-miterlimit:2;">
    <g transform="matrix(2,0,0,2,0,0)">
        <path d="M1.5,0L30.5,0C30.5,2.215 30.516,4.315 30.49,6.312C30.489,6.32 30.487,6.328 30.485,6.336C30.458,8.466 30.384,10.476 30.192,12.38C30.192,12.397 30.193,12.415 30.193,12.433C29.542,18.87 27.559,24.098 21.576,28.601C21.57,28.603 21.565,28.605 21.56,28.608C20.685,29.268 19.723,29.913 18.666,30.543L16,32C10.959,29.723 7.665,27.064 5.515,24C5.505,23.974 5.495,23.949 5.486,23.924C4.381,22.344 3.58,20.656 3,18.857C2.996,18.854 2.993,18.851 2.989,18.849C1.41,13.914 1.48,8.151 1.498,1.499L1.497,1.499L1.5,0ZM15.998,1L29.5,1C29.5,1.534 29.501,2.027 29.503,2.497L18,14.004L24,14.004L24,12.004L27.996,16L28.707,16C28.091,19.261 26.974,22.053 24.667,24.667L17.991,17.996L17.991,26.496L19.991,26.496L16,30.487L16,31L16,31C11.963,29.17 9.263,27.085 7.266,24.732L13.993,18.003L13.991,26.496L11.991,26.496L15.991,30.496L15.993,15.997L15.998,15.997L15.998,16L17.998,14L18,5.5L20,5.5L16,1.5L15.998,15.996L14,13.997L14,5.5L12,5.5C12,5.5 15.349,2.152 15.998,1.502L15.998,1ZM28,16.004L24,20.004L24,18.004L18,18.003L16,16.003L28,16.004ZM2.496,2.497L13.997,13.997L8,13.996L8,11.996L4,15.996L15.991,15.997L13.993,17.996L8,17.996L8,19.996L4.004,16L3.221,16C2.45,12.01 2.479,7.518 2.496,2.497Z" style="fill:rgb(39,39,39);"/>
    </g>
</svg>
