<?xml version="1.0" encoding="UTF-8" standalone="no"?>
<!DOCTYPE svg PUBLIC "-//W3C//DTD SVG 1.1//EN" "http://www.w3.org/Graphics/SVG/1.1/DTD/svg11.dtd">
<svg width="100%" height="100%" viewBox="0 0 64 64" version="1.1" xmlns="http://www.w3.org/2000/svg" xmlns:xlink="http://www.w3.org/1999/xlink" xml:space="preserve" xmlns:serif="http://www.serif.com/" style="fill-rule:evenodd;clip-rule:evenodd;stroke-linejoin:round;stroke-miterlimit:2;">
    <g transform="matrix(2,0,0,2,0,0)">
        <path d="M16,31C23.175,31 29,24.178 29,19C29,26.175 23.175,32 16,32C8.825,32 3,26.175 3,19C3,24.133 8.825,31 16,31ZM15.955,26.495C15.28,26.43 14.573,25.26 13.508,25.489C12.127,25.787 13.657,27.364 14.51,28.01C15.298,28.607 14.114,29.318 13.508,29.018C12.81,28.673 12.893,27.68 12.005,27.506C11.22,27.352 11.166,27.687 10.502,27.506C9.25,27.164 9.554,26.253 10.502,26.498C11.967,26.876 12.616,26.062 12.005,24.481C13.236,24.626 15.338,24.481 16.013,24.481C16.017,24.487 16.021,24.494 16.025,24.5C16.721,24.503 18.787,24.642 20,24.5C19.39,26.068 20.038,26.875 21.5,26.5C22.446,26.257 22.751,27.161 21.5,27.5C20.837,27.68 20.784,27.347 20,27.5C19.114,27.673 19.197,28.657 18.5,29C17.895,29.297 16.714,28.592 17.5,28C18.352,27.359 19.878,25.795 18.5,25.5C17.407,25.266 16.692,26.5 16,26.5C15.984,26.5 15.969,26.498 15.955,26.495ZM16.011,2.968C16.004,2.989 16,3 16,3L14.5,3L14.5,6L11.5,6L11.483,9L14.5,9L14.5,19.5C13.266,18.985 10.667,16.602 9.5,15.018C9.177,12.824 7.313,11.472 7.5,10C7.56,9.532 6.57,10.255 6.5,11C5.918,11 4.523,9.269 4.006,10C2.912,11.547 5.611,15.088 7.5,16.5C8.271,17.077 10.273,20.57 11.5,22C9.92,22.141 8.774,22.449 7.989,22.5C6.805,22.577 8.482,24.515 7.296,24.615C6.22,24.705 6.897,22.851 6.219,21.947C5.596,21.115 4.327,21.148 4.5,20.5C4.802,19.373 6.196,20.957 6.5,20C6.893,18.76 5.811,18.831 5.5,18C5.187,17.163 6.347,16.383 5,16C4.338,15.812 3.865,16.515 3,16.515L3,3.5C3,2.11 2.483,0.983 1.5,0L16,0C16.004,0.005 16.008,0.011 16.011,0.016C16.015,0.011 16.019,0.005 16.023,0L30.5,0C29.519,0.983 29.002,2.11 29.002,3.5L29.002,16.515C28.139,16.515 27.667,15.812 27.005,16C25.661,16.383 26.819,17.163 26.506,18C26.196,18.831 25.115,18.76 25.508,20C25.811,20.957 27.204,19.373 27.505,20.5C27.678,21.148 26.411,21.115 25.788,21.947C25.111,22.851 25.787,24.705 24.713,24.615C23.529,24.515 25.203,22.577 24.021,22.5C23.238,22.449 22.093,22.141 20.516,22C21.741,20.57 23.739,17.077 24.509,16.5C26.395,15.088 29.09,11.547 27.998,10C27.482,9.269 26.089,11 25.508,11C25.438,10.255 24.45,9.532 24.509,10C24.697,11.472 22.835,12.824 22.513,15.018C21.348,16.602 18.753,18.985 17.52,19.5L17.52,9L20.533,9L20.516,6L17.52,6L17.52,3L16.023,3C16.023,3 16.019,2.989 16.011,2.968Z" style="fill:rgb(39,39,39);"/>
    </g>
</svg>
