<?xml version="1.0" encoding="UTF-8" standalone="no"?>
<!DOCTYPE svg PUBLIC "-//W3C//DTD SVG 1.1//EN" "http://www.w3.org/Graphics/SVG/1.1/DTD/svg11.dtd">
<svg width="100%" height="100%" viewBox="0 0 64 64" version="1.1" xmlns="http://www.w3.org/2000/svg" xmlns:xlink="http://www.w3.org/1999/xlink" xml:space="preserve" xmlns:serif="http://www.serif.com/" style="fill-rule:evenodd;clip-rule:evenodd;stroke-linejoin:round;stroke-miterlimit:2;">
    <g transform="matrix(2,0,0,2,0,0)">
        <path d="M30.5,0C29.612,0.888 28.501,2.244 28.501,3.5C28.501,6.436 28.5,13.155 28.5,17.5C28.5,28.262 17.218,28.848 16.004,31.991L16,32C14.454,28.878 3.498,28.272 3.498,17.5C3.498,13.047 3.5,6.436 3.5,3.5C3.5,1.712 2.764,1.264 1.5,0L30.5,0ZM3.806,1L16,1L28.397,1C27.88,1.797 27.501,2.674 27.501,3.5C27.501,6.436 27.5,13.155 27.5,17.5C27.5,23.471 23.691,26.018 20.444,27.756C19.002,28.528 17.654,29.154 16.698,29.807C16.419,29.998 16.171,30.194 15.954,30.396C15.722,30.194 15.458,29.997 15.166,29.806C14.178,29.159 12.83,28.538 11.406,27.77C8.183,26.031 4.498,23.47 4.498,17.5C4.498,13.047 4.5,6.436 4.5,3.5C4.5,2.34 4.264,1.641 3.806,1ZM15,8.118C14.693,7.843 14.5,7.444 14.5,7C14.5,6.172 15.172,5.5 16,5.5C16.828,5.5 17.5,6.172 17.5,7C17.5,7.444 17.307,7.843 17,8.118L17,9L18.382,9C18.657,8.693 19.056,8.5 19.5,8.5C20.328,8.5 21,9.172 21,10C21,10.828 20.328,11.5 19.5,11.5C19.056,11.5 18.657,11.307 18.382,11L17,11L17,16.083C19.836,16.56 22,19.029 22,22C22,25.311 19.311,28 16,28C12.689,28 10,25.311 10,22C10,19.029 12.164,16.56 15,16.083L15,11L13.618,11C13.343,11.307 12.944,11.5 12.5,11.5C11.672,11.5 11,10.828 11,10C11,9.172 11.672,8.5 12.5,8.5C12.944,8.5 13.343,8.693 13.618,9L15,9L15,8.118ZM26.414,8.5L25,7.086L23.586,8.5L25,9.914L26.414,8.5ZM8.409,8.5L6.995,7.086L5.581,8.5L6.995,9.914L8.409,8.5ZM24.591,6L23,4.409L21.409,6L23,7.591L24.591,6ZM10.591,6L9,4.409L7.409,6L9,7.591L10.591,6ZM21.768,4.006L20,2.239L18.232,4.006L20,5.774L21.768,4.006ZM13.768,4.006L12,2.239L10.232,4.006L12,5.774L13.768,4.006ZM17.945,3.25L16,1.305L14.055,3.25L16,5.195L17.945,3.25Z" style="fill:rgb(39,39,39);"/>
    </g>
</svg>
