<?xml version="1.0" encoding="UTF-8" standalone="no"?>
<!DOCTYPE svg PUBLIC "-//W3C//DTD SVG 1.1//EN" "http://www.w3.org/Graphics/SVG/1.1/DTD/svg11.dtd">
<svg width="100%" height="100%" viewBox="0 0 64 64" version="1.1" xmlns="http://www.w3.org/2000/svg" xmlns:xlink="http://www.w3.org/1999/xlink" xml:space="preserve" xmlns:serif="http://www.serif.com/" style="fill-rule:evenodd;clip-rule:evenodd;stroke-linejoin:round;stroke-miterlimit:2;">
    <g transform="matrix(2,0,0,2,0,0)">
        <path d="M15.991,31.977L16,32C17.355,28.062 30,27.937 30,15L30,0L2,0L2,15C2,27.956 14.445,28.077 15.991,31.977ZM15.126,4.015L13.916,2.181L13.392,4.265L11.895,2.722L11.719,4.819L10,3.608L10.163,5.664L8.288,4.809L8.775,6.775L6.809,6.288L7.6,8.119L5.608,8L6.679,9.654L4.722,9.895L6.047,11.333L4.181,11.916L5.727,13.101L4,14L6.015,14.874L4.181,16.084L6.265,16.608L4.722,18.105L6.819,18.281L5.608,20L7.664,19.837L6.809,21.712L8.775,21.225L8.288,23.191L10.119,22.4L10,24.392L11.654,23.321L11.895,25.278L13.333,23.953L13.916,25.819L15.101,24.273L16,26L16.874,23.985L18.084,25.819L18.608,23.735L20.105,25.278L20.281,23.181L22,24.392L21.837,22.336L23.712,23.191L23.225,21.225L25.191,21.712L24.4,19.881L26.392,20L25.321,18.346L27.278,18.105L25.953,16.667L27.819,16.084L26.273,14.899L28,14L25.985,13.126L27.819,11.916L25.735,11.392L27.278,9.895L25.181,9.719L26.392,8L24.336,8.163L25.191,6.288L23.225,6.775L23.712,4.809L21.881,5.6L22,3.608L20.346,4.679L20.105,2.722L18.667,4.047L18.084,2.181L16.899,3.727L16,2L15.126,4.015ZM16.052,5.957L16,5.957C11.585,5.957 8,9.542 8,13.957C8,18.372 11.585,21.957 16,21.957L16.052,21.957C20.443,21.929 24,18.355 24,13.957C24,9.559 20.443,5.985 16.052,5.957ZM16,21.489L12.464,19.367L13.879,17.953L16,21.489ZM15,17.489L16,21.489L17,17.489L15,17.489ZM16,21.489L18.121,17.953L19.536,19.367L16,21.489ZM22.639,13.788C22.623,13.777 22.611,13.768 22.603,13.764C22.429,13.648 22.215,13.546 21.962,13.457C21.765,13.386 21.624,13.32 21.538,13.257C21.453,13.195 21.41,13.102 21.41,12.978C21.41,12.717 21.554,12.587 21.843,12.587C22.134,12.587 22.443,12.741 22.77,13.049L23.107,11.53C22.939,11.353 22.745,11.218 22.525,11.126C22.305,11.034 22.08,10.989 21.852,10.989C21.519,10.989 21.237,11.08 21.004,11.264C20.771,11.447 20.595,11.699 20.478,12.019C20.361,12.338 20.302,12.694 20.302,13.084C20.302,13.527 20.364,13.88 20.487,14.142L20.492,14.154C20.619,14.418 20.768,14.607 20.939,14.723C21.111,14.838 21.324,14.946 21.581,15.047C21.781,15.124 21.924,15.195 22.011,15.26C22.099,15.325 22.142,15.423 22.142,15.553C22.142,15.665 22.109,15.75 22.042,15.806C21.976,15.862 21.865,15.89 21.71,15.89C21.529,15.89 21.34,15.838 21.144,15.735C20.947,15.631 20.77,15.494 20.611,15.322L20.25,16.849C20.418,17.045 20.633,17.2 20.894,17.315C21.156,17.431 21.424,17.489 21.7,17.489C22.033,17.489 22.316,17.395 22.549,17.209C22.782,17.022 22.957,16.771 23.074,16.454C23.191,16.137 23.25,15.784 23.25,15.393C23.25,14.943 23.186,14.588 23.057,14.327C22.938,14.085 22.798,13.905 22.639,13.788ZM11.5,10.75L9.5,10.75L9.5,17.25L11.5,17.25L11.5,10.75ZM15.411,6.8L15.4,8.3L13.9,8.3L13.91,9.489L15.4,9.5L15.4,13.053L14.394,13.053L14.394,10.75L12.5,10.75L12.5,17.25L14.394,17.25L14.394,14.854L17.606,14.854L17.606,17.25L19.5,17.25L19.5,10.75L17.606,10.75L17.606,13.053L16.6,13.053L16.6,9.515L18.1,9.492L18.1,8.3L16.6,8.3L16.6,6.8L15.411,6.8Z" style="fill:rgb(39,39,39);"/>
    </g>
</svg>
