<?xml version="1.0" encoding="UTF-8" standalone="no"?>
<!DOCTYPE svg PUBLIC "-//W3C//DTD SVG 1.1//EN" "http://www.w3.org/Graphics/SVG/1.1/DTD/svg11.dtd">
<svg width="100%" height="100%" viewBox="0 0 64 64" version="1.1" xmlns="http://www.w3.org/2000/svg" xmlns:xlink="http://www.w3.org/1999/xlink" xml:space="preserve" xmlns:serif="http://www.serif.com/" style="fill-rule:evenodd;clip-rule:evenodd;stroke-linejoin:round;stroke-miterlimit:2;">
    <g transform="matrix(2,0,0,2,0,0)">
        <path d="M15.953,32C7.971,31.974 1.5,25.487 1.5,17.5L1.5,0L30.5,0L30.5,17.5C30.5,25.503 24.003,32 16,32L15.953,32ZM15.981,5L16,5C19.311,5 22,7.689 22,11L22,13.033C23.135,13.224 24,14.212 24,15.4L24,22.6C24,23.925 22.925,25 21.6,25L10.4,25C9.075,25 8,23.925 8,22.6L8,15.4C8,14.212 8.865,13.224 10,13.033L10,11C10,7.695 12.678,5.011 15.981,5ZM14.509,18.333C14.193,17.979 14,17.512 14,17C14,15.896 14.896,15 16,15C17.104,15 18,15.896 18,17C18,17.512 17.807,17.979 17.491,18.333C17.497,18.388 17.5,18.443 17.5,18.5L17.5,21.5C17.5,22.328 16.828,23 16,23C15.172,23 14.5,22.328 14.5,21.5L14.5,18.5C14.5,18.443 14.503,18.388 14.509,18.333ZM20,13L12,13L12,11C12,8.792 13.792,7 16,7C18.208,7 20,8.792 20,11L20,13Z" style="fill:rgb(39,39,39);"/>
    </g>
</svg>
