<?xml version="1.0" encoding="UTF-8" standalone="no"?>
<!DOCTYPE svg PUBLIC "-//W3C//DTD SVG 1.1//EN" "http://www.w3.org/Graphics/SVG/1.1/DTD/svg11.dtd">
<svg width="100%" height="100%" viewBox="0 0 64 64" version="1.1" xmlns="http://www.w3.org/2000/svg" xmlns:xlink="http://www.w3.org/1999/xlink" xml:space="preserve" xmlns:serif="http://www.serif.com/" style="fill-rule:evenodd;clip-rule:evenodd;stroke-linejoin:round;stroke-miterlimit:2;">
    <g transform="matrix(2,0,0,2,0,0)">
        <path d="M30.5,0L1.5,0L1.5,17.5C1.5,25.503 7.997,32 16,32L16.094,32C24.053,31.949 30.5,25.472 30.5,17.5L30.5,0ZM15.741,22.431C15.062,22.437 14.504,22.649 14.066,23.066C13.622,23.489 13.4,24.027 13.4,24.679C13.4,25.322 13.617,25.852 14.052,26.271C14.486,26.689 15.06,26.898 15.773,26.898C16.486,26.898 17.06,26.689 17.494,26.271C17.929,25.852 18.146,25.322 18.146,24.679C18.146,24.027 17.924,23.489 17.479,23.066C17.035,22.642 16.466,22.431 15.773,22.431L15.741,22.431ZM17.575,20.189L17.633,19.295C17.741,18.337 18.166,17.501 18.908,16.788L20.094,15.659C21.022,14.759 21.671,13.941 22.042,13.203C22.414,12.465 22.599,11.68 22.599,10.849C22.599,9.021 22.028,7.606 20.885,6.605C19.761,5.618 18.186,5.117 16.163,5.102L16.066,5.102C14.015,5.102 12.396,5.629 11.21,6.685C10.023,7.741 9.42,9.202 9.401,11.069L13.649,11.069C13.668,10.286 13.896,9.672 14.33,9.227C14.765,8.781 15.343,8.559 16.066,8.559C17.589,8.559 18.351,9.385 18.351,11.038C18.351,11.586 18.205,12.107 17.912,12.601C17.619,13.095 17.03,13.735 16.146,14.522C15.263,15.309 14.655,16.108 14.323,16.92C13.991,17.731 13.825,18.821 13.825,20.189L17.575,20.189Z" style="fill:rgb(39,39,39);"/>
    </g>
</svg>
