<?xml version="1.0" encoding="UTF-8" standalone="no"?>
<!DOCTYPE svg PUBLIC "-//W3C//DTD SVG 1.1//EN" "http://www.w3.org/Graphics/SVG/1.1/DTD/svg11.dtd">
<svg width="100%" height="100%" viewBox="0 0 64 64" version="1.1" xmlns="http://www.w3.org/2000/svg" xmlns:xlink="http://www.w3.org/1999/xlink" xml:space="preserve" xmlns:serif="http://www.serif.com/" style="fill-rule:evenodd;clip-rule:evenodd;stroke-linejoin:round;stroke-miterlimit:2;">
    <g transform="matrix(2,0,0,2,0,0)">
        <path d="M30.502,0.207C30.503,2.346 30.517,4.378 30.492,6.312C30.49,6.32 30.488,6.329 30.487,6.337C30.46,8.466 30.386,10.475 30.194,12.379C30.194,12.397 30.194,12.415 30.194,12.433C29.544,18.87 27.56,24.098 21.577,28.601L21.562,28.608C20.686,29.269 19.724,29.913 18.668,30.543L16.002,32C10.96,29.723 7.667,27.064 5.516,24C5.506,23.973 5.496,23.947 5.486,23.922C4.382,22.343 3.581,20.655 3.001,18.857C2.998,18.854 2.994,18.851 2.991,18.849C1.411,13.914 1.482,8.151 1.499,1.499L1.502,0L30.502,0L30.502,0.207ZM22.551,4L26.876,4C26.876,5.296 26.883,6.54 26.877,7.735L26.88,7.738L26.875,8.152L28,6.879L29.875,9L28,11.121L26.846,9.815C26.816,11.022 26.757,12.177 26.645,13.284C26.646,13.298 26.646,13.311 26.646,13.325C26.605,13.725 26.558,14.119 26.503,14.507L27.5,13.379L29.375,15.5L27.5,17.621L26.208,16.159C25.98,17.201 25.677,18.197 25.271,19.153L27.125,21.25L25.25,23.371L23.827,21.762C23.248,22.588 22.558,23.382 21.739,24.149L23.375,26L21.5,28.121L19.625,26L19.98,25.599C19.375,26.045 18.717,26.48 18.001,26.907L16.669,27.635L17.875,29L16,31.121L14.125,29L15.299,27.672C14.207,27.146 13.233,26.593 12.362,26.014L10.5,28.121L8.625,26L10.144,24.282C9.359,23.557 8.697,22.797 8.137,22C8.129,21.98 8.122,21.96 8.114,21.941C8.1,21.92 8.085,21.899 8.07,21.878L6.75,23.371L4.875,21.25L6.651,19.241C6.504,18.882 6.371,18.515 6.251,18.143C6.248,18.141 6.246,18.139 6.243,18.136C6.044,17.513 5.879,16.872 5.744,16.214L4.5,17.621L2.625,15.5L4.5,13.379L5.453,14.457C5.263,12.995 5.179,11.452 5.144,9.827L4,11.121L2.125,9L4,6.879L5.123,8.149C5.117,7.169 5.122,6.161 5.124,5.124L5.126,4L9.451,4L8.125,2.5L10,0.379L11.875,2.5L10.549,4L15.451,4L14.125,2.5L16,0.379L17.875,2.5L16.549,4L21.452,4L20.127,2.5L22.002,0.379L23.877,2.5L22.551,4ZM7.808,16.95L16.551,25.693L16.001,26C12.917,24.577 10.902,22.915 9.586,21C9.58,20.983 8.402,18.91 8.047,17.786C8.045,17.784 8.043,17.782 8.041,17.78C7.956,17.508 7.878,17.231 7.808,16.95ZM8.172,6L22.619,20.447C21.949,21.503 21.08,22.497 19.955,23.44L7.14,10.625C7.119,9.448 7.125,8.219 7.129,6.937L7.13,6L8.172,6ZM24.26,16.431L13.828,6L19.485,6L24.833,11.347C24.805,12.173 24.76,12.969 24.684,13.737C24.684,13.748 24.684,13.759 24.684,13.77C24.593,14.696 24.458,15.582 24.26,16.431ZM2.125,2.5L4,0.379L5.875,2.5L4,4.621L2.125,2.5ZM28,0.379L29.875,2.5L28,4.621L26.125,2.5L28,0.379Z" style="fill:rgb(39,39,39);"/>
    </g>
</svg>
