<?xml version="1.0" encoding="UTF-8" standalone="no"?>
<!DOCTYPE svg PUBLIC "-//W3C//DTD SVG 1.1//EN" "http://www.w3.org/Graphics/SVG/1.1/DTD/svg11.dtd">
<svg width="100%" height="100%" viewBox="0 0 192 192" version="1.1" xmlns="http://www.w3.org/2000/svg" xmlns:xlink="http://www.w3.org/1999/xlink" xml:space="preserve" xmlns:serif="http://www.serif.com/" style="fill-rule:evenodd;clip-rule:evenodd;stroke-linejoin:round;stroke-miterlimit:2;">
    <g transform="matrix(0.6,0,0,0.6,-812.1,-217.207)">
        <path d="M1512.69,682.009C1444.08,681.575 1388.5,625.732 1388.5,557.012L1388.5,387.012C1388.5,375.386 1380.86,369.376 1373.5,362.012L1653.5,362.012C1646.41,369.098 1638.5,373.833 1638.5,387.163L1638.5,557.012C1638.5,626.001 1582.49,682.012 1513.5,682.012L1512.69,682.009ZM1513.5,447.012C1554.89,447.012 1588.5,480.618 1588.5,522.012C1588.5,563.406 1554.89,597.012 1513.5,597.012C1472.11,597.012 1438.5,563.406 1438.5,522.012C1438.5,480.618 1472.11,447.012 1513.5,447.012Z" style="fill:rgb(39,123,178);"/>
    </g>
</svg>
