<?xml version="1.0" encoding="UTF-8" standalone="no"?>
<!DOCTYPE svg PUBLIC "-//W3C//DTD SVG 1.1//EN" "http://www.w3.org/Graphics/SVG/1.1/DTD/svg11.dtd">
<svg width="100%" height="100%" viewBox="0 0 64 64" version="1.1" xmlns="http://www.w3.org/2000/svg" xmlns:xlink="http://www.w3.org/1999/xlink" xml:space="preserve" xmlns:serif="http://www.serif.com/" style="fill-rule:evenodd;clip-rule:evenodd;stroke-linejoin:round;stroke-miterlimit:2;">
    <g transform="matrix(1.04132,0,0,1.04191,-1.1869,-1.34115)">
        <path d="M4.137,1.287L4.1,1.288C3.603,1.293 3.101,1.423 2.64,1.689C1.206,2.517 0.714,4.353 1.542,5.787L33.542,61.213C34.37,62.647 36.206,63.139 37.64,62.311C39.074,61.483 39.566,59.647 38.738,58.213L24.367,33.322C42.619,33.779 43.208,41.3 62.6,41.3C44.102,9.29 62.589,41.284 44.1,9.287C24.111,9.287 24.101,1.297 4.137,1.287ZM9.391,7.382L20.88,27.282C22.134,27.269 23.767,27.269 26.132,27.38C34.958,27.794 39.894,29.756 44.828,31.729C46.895,32.556 48.961,33.386 51.473,34.037L40.592,15.208C31.751,14.796 26.81,12.833 21.872,10.858C19.812,10.034 17.754,9.207 15.253,8.557C13.822,8.185 11.662,7.607 9.391,7.382Z" style="fill:rgb(39,39,39);"/>
    </g>
</svg>
