<?xml version="1.0" encoding="UTF-8" standalone="no"?>
<!DOCTYPE svg PUBLIC "-//W3C//DTD SVG 1.1//EN" "http://www.w3.org/Graphics/SVG/1.1/DTD/svg11.dtd">
<svg width="100%" height="100%" viewBox="0 0 64 64" version="1.1" xmlns="http://www.w3.org/2000/svg" xmlns:xlink="http://www.w3.org/1999/xlink" xml:space="preserve" xmlns:serif="http://www.serif.com/" style="fill-rule:evenodd;clip-rule:evenodd;stroke-linejoin:round;stroke-miterlimit:2;">
    <g transform="matrix(-1.0888,-8.88461e-17,1.04904e-16,-1.05644,173.171,49.5164)">
        <path d="M129.657,0C151.561,-10.978 154.108,-12.274 154.108,-12.274C154.108,-12.274 153.575,-9.573 150.435,6.657C155.754,10.769 159.047,16.449 159.047,22.718C159.047,35.256 145.878,45.435 129.657,45.435C113.436,45.435 100.267,35.256 100.267,22.718C100.267,10.179 113.436,0 129.657,0ZM129.657,5.679C130.492,5.679 131.316,5.484 132.067,5.108C138.337,1.965 143.023,-0.385 146.519,-2.139C146.103,0.006 145.611,2.545 145.03,5.546C144.616,7.69 145.431,9.889 147.128,11.201C150.977,14.176 153.536,18.182 153.536,22.718C153.536,26.264 151.955,29.502 149.433,32.161C144.983,36.851 137.751,39.756 129.657,39.756C121.563,39.756 114.33,36.851 109.881,32.161C107.359,29.502 105.777,26.264 105.777,22.718C105.777,19.171 107.359,15.934 109.881,13.275C114.33,8.584 121.563,5.679 129.657,5.679Z" style="fill:rgb(39,39,39);"/>
    </g>
</svg>
